<?xml version="1.0" standalone="no"?>
<!DOCTYPE svg PUBLIC "-//W3C//DTD SVG 20010904//EN"
 "http://www.w3.org/TR/2001/REC-SVG-20010904/DTD/svg10.dtd">
<svg version="1.0" xmlns="http://www.w3.org/2000/svg"
 width="500.000000pt" height="500.000000pt" viewBox="0 0 500.000000 500.000000"
 preserveAspectRatio="xMidYMid meet">
<g transform="translate(0.000000,500.000000) scale(0.100000,-0.100000)"
fill="#000000" stroke="none">
<path d="M2723 4505 c0 -7 8 -10 19 -7 10 2 18 6 18 7 0 1 -8 5 -18 7 -11 3
-19 0 -19 -7z"/>
<path d="M2758 4493 c-24 -6 -23 -24 2 -30 11 -3 20 -10 20 -15 0 -5 -11 -79
-25 -164 -14 -85 -25 -166 -25 -180 0 -21 -4 -25 -22 -22 -14 2 -22 9 -21 18
1 8 14 93 28 189 16 107 23 177 17 183 -10 10 -32 -83 -38 -167 -3 -27 -9 -52
-15 -53 -5 -2 -7 -18 -3 -38 3 -19 2 -34 -3 -34 -5 0 -9 -16 -10 -36 -1 -20
-7 -40 -15 -45 -10 -7 -9 -9 5 -9 11 0 17 -8 18 -22 0 -13 3 -18 5 -12 2 6 17
9 33 6 32 -4 39 9 47 88 6 51 11 60 24 40 6 -9 10 -10 10 -3 0 6 -5 15 -11 18
-10 7 -3 65 10 75 3 3 6 25 7 50 0 25 1 61 2 80 3 50 0 70 -10 70 -5 0 -6 5
-3 10 6 10 2 11 -27 3z"/>
<path d="M2150 4480 c12 -8 11 -10 -5 -10 -43 0 -56 -45 -36 -116 5 -19 5 -37
-1 -49 -7 -11 -7 -15 -1 -12 6 4 19 -46 33 -118 12 -69 25 -126 29 -126 28 -6
101 -3 101 4 0 5 10 7 22 4 12 -3 28 -2 37 2 30 15 71 22 71 11 0 -5 -8 -10
-17 -11 -13 0 -14 -2 -4 -6 8 -3 20 2 28 13 7 10 13 14 13 8 0 -5 8 3 18 19
10 15 20 26 23 25 2 -2 -2 2 -9 8 -10 9 -10 13 -1 16 10 3 9 8 0 24 -10 15
-11 15 -7 2 3 -10 1 -18 -4 -18 -6 0 -10 5 -10 11 0 5 -5 7 -11 3 -7 -4 -28
-8 -48 -10 -27 -2 -31 0 -16 6 11 5 14 9 7 9 -7 1 -22 -4 -33 -9 -11 -6 -36
-13 -55 -16 -30 -3 -35 -1 -30 11 3 9 2 13 -4 10 -5 -3 -11 9 -14 27 -3 18
-12 74 -20 123 -7 50 -12 98 -10 108 1 9 -2 17 -7 17 -5 0 -14 11 -19 25 -5
14 -15 25 -22 25 -9 0 -8 -3 2 -10z m13 -52 c3 -13 15 -86 28 -163 12 -77 25
-144 30 -149 4 -4 49 -1 102 8 115 20 107 20 107 -2 0 -15 -18 -21 -122 -37
l-123 -20 -31 185 c-23 134 -28 187 -20 192 18 12 24 9 29 -14z"/>
<path d="M2212 4380 c0 -14 2 -19 5 -12 2 6 2 18 0 25 -3 6 -5 1 -5 -13z"/>
<path d="M2091 4344 c0 -11 3 -14 6 -6 3 7 2 16 -1 19 -3 4 -6 -2 -5 -13z"/>
<path d="M1718 4343 c7 -3 16 -2 19 1 4 3 -2 6 -13 5 -11 0 -14 -3 -6 -6z"/>
<path d="M1699 4327 c11 -14 11 -17 0 -17 -8 0 -20 -9 -27 -20 -10 -16 -9 -26
5 -55 9 -19 20 -35 25 -35 4 0 8 -8 8 -17 1 -10 12 -36 25 -58 36 -58 45 -83
39 -102 -5 -16 -4 -16 6 -3 9 12 10 8 6 -20 -6 -33 -6 -33 10 -15 15 20 15 19
10 -3 -2 -13 -2 -22 1 -19 10 11 42 -33 38 -52 -2 -11 1 -24 7 -27 7 -4 8 -2
4 4 -4 7 -3 12 3 12 5 0 17 3 27 7 10 4 15 2 11 -4 -3 -5 1 -10 9 -10 10 0 11
4 4 11 -12 12 -14 29 -2 23 4 -3 7 14 7 38 0 35 -2 41 -13 33 -9 -8 -11 -7 -7
4 4 9 0 22 -8 29 -16 17 -37 54 -37 66 0 4 5 1 10 -7 5 -8 10 -10 10 -5 0 14
-20 43 -20 30 -1 -17 -29 39 -30 60 -1 11 -4 14 -7 7 -6 -15 -43 54 -43 80 0
10 -5 18 -11 18 -6 0 -9 7 -6 14 4 10 1 13 -9 9 -7 -3 -14 0 -14 6 0 5 -10 16
-22 22 -21 11 -22 11 -9 -4z m41 -70 c9 -18 49 -96 89 -174 63 -120 72 -144
61 -158 -7 -8 -20 -15 -29 -14 -11 0 -10 3 7 11 27 14 29 32 2 23 -11 -4 -20
-2 -20 4 0 5 -38 82 -84 170 -50 97 -79 162 -72 165 23 9 31 4 46 -27z"/>
<path d="M3187 4311 c-6 -2 -23 -12 -36 -22 -13 -10 -27 -16 -31 -14 -5 3 -12
0 -16 -6 -5 -8 -3 -9 6 -4 9 5 11 4 6 -4 -4 -6 -11 -9 -16 -6 -10 6 -31 -19
-35 -42 -1 -10 -7 -17 -12 -16 -5 1 -10 -3 -11 -10 0 -7 -4 -37 -8 -68 -5 -43
-3 -65 9 -88 9 -17 12 -29 8 -27 -10 6 -8 -40 2 -50 4 -5 5 -1 2 8 -4 9 -1 19
6 24 7 4 10 3 5 -4 -3 -6 6 -20 21 -32 16 -11 37 -29 48 -38 11 -9 16 -14 11
-9 -6 4 -14 7 -20 7 -5 0 -2 -6 9 -13 10 -8 29 -13 41 -11 13 1 24 -2 24 -7 0
-5 25 -9 55 -9 65 0 77 10 117 103 15 34 27 56 28 49 0 -7 5 -10 11 -6 6 3 -3
14 -21 26 -28 16 -37 18 -61 8 -16 -7 -26 -16 -23 -21 3 -5 1 -9 -5 -9 -6 0
-7 -7 -4 -17 5 -12 3 -14 -7 -8 -8 5 -11 4 -7 -2 4 -6 -1 -17 -11 -25 -24 -21
-84 -5 -76 20 4 12 3 13 -3 4 -10 -13 -43 -6 -43 9 0 5 1 10 2 12 2 1 -5 13
-15 27 -21 30 -22 69 -2 118 13 30 18 34 26 22 9 -13 10 -12 6 2 -4 10 3 23
20 33 14 10 22 12 19 6 -6 -10 32 -8 71 4 7 2 15 -1 19 -7 5 -7 2 -8 -6 -3 -9
5 -11 4 -6 -4 4 -6 12 -9 17 -5 10 6 89 -41 89 -52 0 -4 -7 0 -17 7 -15 13
-15 12 -5 -7 6 -12 9 -24 7 -28 -3 -3 -2 -4 1 -1 4 2 15 0 25 -5 36 -20 89 27
62 54 -5 4 -8 12 -8 16 0 5 -9 16 -20 25 -11 9 -13 13 -5 10 8 -4 4 3 -10 16
-14 13 -20 20 -13 15 10 -7 12 -4 7 8 -4 10 -13 15 -20 12 -20 -8 -45 4 -37
17 4 7 0 8 -12 4 -9 -4 -23 -3 -29 2 -12 10 -108 19 -129 12z m126 -35 c52
-19 101 -59 120 -98 15 -31 15 -33 -1 -39 -12 -4 -23 4 -37 29 -25 44 -94 82
-149 82 -119 0 -194 -150 -122 -244 32 -43 97 -78 134 -74 21 2 33 15 54 53
15 28 32 50 37 49 6 -1 16 -2 21 -2 11 -2 -19 -68 -53 -116 -18 -26 -24 -28
-64 -22 -122 16 -219 129 -198 229 27 126 142 194 258 153z"/>
<path d="M2667 4291 c-4 -17 -3 -21 5 -13 5 5 8 16 6 23 -3 8 -7 3 -11 -10z"/>
<path d="M1811 4264 c0 -11 3 -14 6 -6 3 7 2 16 -1 19 -3 4 -6 -2 -5 -13z"/>
<path d="M3045 4269 c-4 -6 -5 -12 -2 -15 2 -3 7 2 10 11 7 17 1 20 -8 4z"/>
<path d="M3073 4268 c-15 -20 -25 -38 -20 -38 3 0 12 11 21 25 17 26 16 35 -1
13z"/>
<path d="M1780 4250 c0 -5 5 -10 11 -10 5 0 7 5 4 10 -3 6 -8 10 -11 10 -2 0
-4 -4 -4 -10z"/>
<path d="M2420 4190 c-8 -5 -10 -10 -5 -10 6 0 17 5 25 10 8 5 11 10 5 10 -5
0 -17 -5 -25 -10z"/>
<path d="M2460 4193 c0 -5 5 -15 10 -23 7 -12 9 -10 7 8 -1 19 -17 33 -17 15z"/>
<path d="M1696 4157 c3 -20 0 -26 -9 -21 -6 4 -9 3 -4 -1 4 -5 17 -10 29 -12
20 -3 20 -2 6 14 -9 10 -18 25 -21 33 -2 8 -3 2 -1 -13z"/>
<path d="M2380 4176 c0 -2 7 -7 16 -10 8 -3 12 -2 9 4 -6 10 -25 14 -25 6z"/>
<path d="M3177 4151 c-4 -17 -3 -21 5 -13 5 5 8 16 6 23 -3 8 -7 3 -11 -10z"/>
<path d="M1287 4106 c-4 -11 -5 -21 -2 -24 3 -3 5 1 5 9 0 12 2 11 10 -1 6
-10 4 -22 -6 -37 -10 -15 -11 -23 -3 -23 8 0 7 -6 -2 -17 -9 -10 -9 -14 -2
-10 7 5 17 -2 24 -15 12 -22 11 -22 -7 -8 -16 12 3 -12 54 -68 7 -7 10 -18 6
-23 -3 -5 0 -8 8 -7 9 2 12 -7 11 -27 0 -16 1 -24 4 -17 7 18 24 14 21 -5 -2
-10 2 -17 8 -16 6 1 11 -5 11 -13 0 -10 -6 -13 -16 -8 -9 3 -25 9 -36 12 -11
3 -26 14 -33 24 -7 10 -19 18 -25 17 -9 0 -9 -2 1 -6 6 -2 12 -9 12 -14 0 -13
-33 2 -48 23 -7 10 -19 18 -25 18 -7 0 -4 -5 6 -11 9 -5 17 -15 17 -22 0 -8
-3 -8 -8 -2 -12 17 -75 41 -107 40 -24 0 -29 -4 -27 -19 2 -10 -1 -16 -5 -13
-5 3 -10 -5 -11 -18 -1 -13 3 -27 10 -31 7 -5 8 -3 3 6 -5 9 -4 11 3 6 7 -4
12 -16 12 -27 0 -10 5 -19 10 -19 7 0 7 -6 0 -20 -8 -15 -8 -18 3 -15 15 6 61
-52 63 -79 3 -37 -17 -45 -63 -25 -24 10 -43 16 -43 14 0 -3 -16 4 -36 15 -19
11 -39 18 -45 15 -5 -4 -9 -3 -9 2 0 4 -15 8 -33 9 -17 1 -26 -1 -19 -3 6 -3
12 -9 12 -15 0 -6 -6 -8 -12 -5 -8 3 -14 -5 -14 -19 -1 -13 3 -24 8 -24 6 0 6
-5 -1 -14 -9 -11 -9 -14 1 -13 45 1 69 -4 62 -15 -4 -7 -3 -8 4 -4 6 4 38 -5
71 -19 33 -14 68 -25 76 -25 9 0 14 -4 11 -8 -2 -4 5 -9 17 -9 12 -1 31 -6 42
-12 11 -5 39 -16 62 -25 40 -15 43 -15 56 5 10 13 22 18 39 15 18 -3 24 1 25
15 1 10 -3 19 -8 19 -6 0 -7 5 -3 12 4 7 3 8 -5 4 -9 -6 -9 -11 -1 -21 8 -9 8
-15 0 -20 -9 -5 -15 14 -11 38 0 4 -4 7 -11 7 -6 0 -9 3 -5 6 3 3 -3 15 -14
27 -10 11 -19 27 -19 34 0 7 -7 13 -15 13 -8 0 -14 3 -13 8 1 7 -4 23 -23 70
-5 12 -14 21 -21 20 -7 -2 -12 3 -11 10 2 6 -2 12 -7 12 -5 0 -10 4 -10 9 0 4
12 6 26 3 20 -4 23 -7 12 -14 -10 -8 -9 -8 5 -4 25 8 45 -3 42 -22 -1 -9 0
-11 2 -4 3 6 5 12 6 12 9 -1 100 -32 129 -44 24 -11 39 -12 43 -5 5 7 11 6 21
-2 12 -10 13 -8 8 7 -7 18 -7 18 13 1 16 -14 23 -15 29 -6 4 7 3 10 -4 5 -26
-16 -35 51 -12 94 7 14 9 22 5 18 -5 -4 -15 -2 -24 5 -14 11 -14 10 -2 -6 11
-14 12 -20 2 -30 -7 -7 -11 -7 -9 -2 1 6 -5 22 -15 36 -9 14 -18 37 -19 51 -1
15 -6 24 -10 22 -4 -3 -4 -12 -1 -22 3 -9 4 -15 2 -12 -46 54 -45 54 -24 47
14 -5 12 -1 -7 14 -16 11 -28 26 -28 34 0 7 -7 18 -15 25 -11 9 -12 17 -5 30
7 13 6 21 -2 26 -6 4 -8 3 -5 -3 4 -6 1 -13 -7 -16 -8 -3 -13 1 -12 11 0 9 -5
16 -12 14 -8 -1 -11 2 -7 8 3 6 17 8 31 6 13 -3 22 -1 19 3 -2 5 -15 8 -27 7
-13 -1 -30 7 -38 17 -8 10 -24 19 -34 21 -11 1 -22 9 -24 16 -3 8 0 10 8 5 9
-5 11 -4 6 4 -4 6 -11 9 -16 6 -4 -3 -10 0 -12 7 -3 7 -7 5 -11 -6z m163 -224
c92 -146 101 -165 87 -179 -13 -13 -30 -9 -158 37 -79 29 -154 58 -166 66 -18
11 82 -159 158 -267 17 -25 17 -28 1 -42 -15 -14 -33 -9 -187 47 -93 34 -179
65 -189 69 -18 7 -18 9 -4 24 15 14 30 10 177 -45 89 -32 161 -57 161 -54 0 3
-6 13 -13 21 -21 24 -167 260 -167 269 0 30 28 26 153 -20 73 -26 147 -55 165
-63 24 -11 31 -12 26 -3 -11 18 -89 140 -141 221 -37 56 -42 71 -32 83 7 8 15
11 19 7 4 -4 53 -81 110 -171z m-140 -207 c0 -5 -5 -3 -10 5 -5 8 -10 20 -10
25 0 6 5 3 10 -5 5 -8 10 -19 10 -25z m-43 -81 c-1 -2 -13 -1 -26 3 -16 4 -19
8 -10 14 12 7 45 -9 36 -17z"/>
<path d="M2452 4081 c-11 -6 -10 -10 4 -15 9 -3 19 -4 22 -1 3 3 0 5 -7 5 -7
0 -9 5 -6 10 7 12 4 12 -13 1z"/>
<path d="M2781 4074 c0 -11 3 -14 6 -6 3 7 2 16 -1 19 -3 4 -6 -2 -5 -13z"/>
<path d="M1900 4051 c0 -6 4 -13 10 -16 6 -3 7 1 4 9 -7 18 -14 21 -14 7z"/>
<path d="M2428 4053 c7 -3 16 -2 19 1 4 3 -2 6 -13 5 -11 0 -14 -3 -6 -6z"/>
<path d="M3163 4033 c4 -6 2 -13 -5 -15 -8 -3 -6 -7 4 -11 10 -3 22 1 29 11 8
9 9 14 5 10 -5 -4 -16 -2 -24 5 -11 8 -14 8 -9 0z"/>
<path d="M3420 3996 c0 -8 4 -17 9 -20 5 -4 7 3 4 14 -6 23 -13 26 -13 6z"/>
<path d="M1490 3941 c0 -6 4 -13 10 -16 6 -3 7 1 4 9 -7 18 -14 21 -14 7z"/>
<path d="M1460 3933 c0 -6 8 -17 18 -24 16 -13 16 -13 2 6 -8 11 -16 22 -17
24 -2 2 -3 0 -3 -6z"/>
<path d="M3764 3918 c5 -17 -23 -41 -49 -44 -21 -2 -45 -16 -45 -27 0 -5 9 -2
20 8 11 10 20 14 20 9 0 -10 -65 -54 -80 -54 -5 0 -10 -6 -10 -13 0 -17 -36
-38 -55 -31 -16 6 -11 24 6 24 6 0 7 -4 4 -10 -9 -15 11 -12 23 3 9 10 6 13
-11 12 -12 0 -28 -4 -34 -8 -7 -5 -19 -5 -25 -1 -7 3 0 -5 17 -19 l30 -25 -28
3 c-15 2 -25 -1 -21 -6 3 -5 11 -6 17 -3 7 4 8 3 4 -1 -7 -9 -23 -13 -59 -17
-9 -1 -15 -6 -12 -10 3 -4 12 -5 22 -2 16 5 16 5 0 -6 -10 -6 -18 -16 -18 -22
0 -6 -8 -17 -17 -25 -10 -8 -12 -12 -5 -8 7 4 24 -1 38 -10 25 -16 64 -13 64
6 0 5 6 9 13 8 14 -2 67 18 67 26 0 2 -12 0 -27 -5 l-28 -10 30 25 c34 28 45
31 45 11 0 -8 7 -16 15 -20 8 -3 15 -11 15 -18 0 -9 -3 -9 -11 2 -9 13 -10 13
-6 0 2 -8 12 -13 22 -12 16 3 17 2 6 -12 -12 -14 -11 -16 5 -9 16 6 15 3 -5
-25 -12 -18 -19 -37 -16 -42 11 -17 36 10 30 31 -6 18 17 21 32 4 4 -4 2 -5
-4 -1 -17 9 -16 0 2 -27 13 -21 13 -23 -15 -36 -17 -7 -27 -17 -24 -23 4 -7 2
-8 -5 -4 -7 5 -20 -3 -32 -18 -12 -15 -25 -23 -32 -19 -23 14 -34 11 -33 -10
1 -11 9 -21 19 -23 9 -1 15 2 11 7 -3 5 -10 7 -15 4 -5 -4 -9 -2 -9 4 0 21 20
20 31 -1 7 -13 12 -24 11 -25 -10 -16 7 -22 52 -20 30 1 51 6 47 10 -10 10 58
79 70 71 5 -3 8 -1 7 4 -2 6 2 10 7 10 6 0 9 -4 8 -8 -1 -4 8 -5 20 -2 18 5
19 7 5 10 -10 2 -18 8 -18 13 0 12 6 11 33 -2 20 -9 20 -9 5 4 -19 15 -14 29
7 21 7 -3 16 -1 20 5 3 7 0 8 -9 5 -9 -3 -16 -3 -16 0 0 4 12 11 27 17 18 7
23 13 16 20 -8 8 -43 -13 -119 -68 -142 -104 -149 -107 -150 -79 -1 15 10 29
33 44 18 13 31 27 28 32 -3 5 0 8 7 5 7 -3 25 5 40 17 l27 23 -67 92 c-37 51
-70 92 -73 93 -4 0 -37 -22 -74 -50 -62 -44 -70 -48 -81 -32 -10 13 -9 19 4
28 10 7 80 57 156 112 123 89 141 99 152 84 10 -13 2 -23 -55 -64 -36 -27 -65
-54 -63 -60 3 -10 22 -38 95 -135 l39 -52 65 51 66 52 19 -23 c23 -29 34 -22
17 11 -20 37 -30 38 -78 5 -25 -18 -50 -31 -54 -29 -5 1 -6 -2 -2 -8 11 -18
-14 -11 -25 8 -11 16 -11 16 -6 0 3 -10 1 -18 -4 -18 -9 0 -14 14 -11 32 0 4
-5 5 -12 2 -8 -3 -20 10 -30 31 -9 19 -20 35 -24 35 -5 0 -14 9 -20 20 -9 14
-10 21 -1 26 6 4 8 3 5 -3 -4 -6 -1 -13 7 -16 10 -4 12 0 8 15 -3 14 1 24 14
32 19 11 23 12 59 16 11 1 15 4 8 7 -7 2 -13 12 -13 21 0 15 2 15 11 2 9 -13
10 -12 5 3 -3 9 -1 17 3 17 5 0 7 9 4 20 -3 11 -9 20 -14 20 -5 0 -9 7 -9 15
0 18 -12 19 -28 3 -10 -10 -15 -10 -23 2 -9 13 -10 12 -5 -2z m-62 -350 c-7
-7 -12 -8 -12 -2 0 6 3 14 7 17 3 4 9 5 12 2 2 -3 -1 -11 -7 -17z"/>
<path d="M3080 3916 c0 -2 7 -7 16 -10 8 -3 12 -2 9 4 -6 10 -25 14 -25 6z"/>
<path d="M3050 3895 c-11 -13 -10 -14 4 -9 9 3 16 10 16 15 0 13 -6 11 -20 -6z"/>
<path d="M3615 3859 c-11 -17 1 -21 15 -4 8 9 8 15 2 15 -6 0 -14 -5 -17 -11z"/>
<path d="M3630 3829 c0 -5 5 -7 10 -4 6 3 10 8 10 11 0 2 -4 4 -10 4 -5 0 -10
-5 -10 -11z"/>
<path d="M2337 3788 c2 -5 2 -8 -1 -8 -2 0 -13 -3 -23 -6 -15 -5 -16 -4 -3 5
12 9 9 10 -15 5 -16 -4 -35 -11 -42 -16 -6 -5 -24 -6 -40 -3 -21 5 -24 4 -13
-4 13 -9 12 -11 -6 -11 -25 0 -136 -48 -145 -63 -4 -5 -13 -6 -20 -2 -8 5 -11
5 -7 0 7 -7 -53 -45 -77 -49 -21 -3 -34 -17 -28 -31 3 -9 -1 -15 -8 -15 -7 0
-26 -12 -42 -27 -17 -16 -27 -23 -24 -18 3 6 -4 11 -16 12 -12 0 -16 -1 -9 -4
22 -9 12 -32 -28 -64 -22 -18 -40 -38 -40 -44 0 -7 -12 -25 -28 -41 -15 -16
-41 -51 -57 -79 -29 -50 -31 -54 -34 -77 -1 -9 -4 -9 -12 2 -8 12 -9 9 -5 -12
4 -16 2 -28 -3 -28 -5 0 -12 -11 -15 -25 -4 -14 -11 -25 -16 -25 -6 0 -10 -18
-10 -39 0 -22 -4 -42 -10 -46 -5 -3 -9 -18 -9 -33 1 -23 -4 -52 -11 -72 -1 -3
-1 -117 0 -255 l2 -250 -123 -3 c-68 -2 -127 -6 -132 -9 -10 -6 52 -73 67 -72
6 0 5 3 -2 6 -10 4 -10 8 -1 19 10 12 9 13 -6 8 -12 -5 -16 -4 -12 3 4 6 1 13
-5 16 -7 2 16 5 52 6 36 1 81 5 101 10 21 5 42 5 48 1 8 -4 11 -45 9 -123 -1
-64 -5 -114 -8 -112 -4 2 -7 -2 -7 -10 0 -8 5 -12 10 -8 5 3 6 -4 2 -17 -5
-15 -4 -20 4 -16 8 5 8 0 2 -17 -6 -14 -8 -27 -6 -28 1 -2 6 -42 10 -89 3 -47
8 -101 11 -120 3 -19 5 -47 6 -62 0 -15 4 -26 8 -25 5 1 8 -1 9 -6 0 -4 8 -21
16 -37 9 -17 13 -34 10 -39 -2 -5 2 -11 10 -15 8 -3 15 -12 15 -21 0 -8 5 -15
11 -15 5 0 7 -5 4 -10 -4 -6 -1 -18 7 -27 11 -14 11 -16 -2 -9 -13 7 -13 6 0
-6 27 -24 56 -62 40 -53 -12 7 -13 6 -3 -7 7 -8 10 -18 6 -22 -4 -4 1 -4 11 0
13 5 17 4 12 -4 -7 -12 14 -52 28 -52 5 0 2 8 -7 18 -10 10 -17 23 -17 28 1 5
10 -2 20 -15 17 -19 18 -26 8 -39 -11 -13 -11 -14 0 -8 8 5 22 -1 36 -16 27
-28 42 -62 24 -55 -7 2 -12 12 -11 21 1 16 0 16 -17 -1 -9 -10 -16 -19 -15
-21 7 -9 50 -10 60 -2 9 7 17 5 26 -7 13 -17 13 -17 -5 -3 -18 13 -19 13 -11
0 5 -8 10 -19 11 -25 0 -5 2 -16 2 -24 2 -12 5 -11 20 2 14 13 20 13 34 3 10
-7 14 -17 10 -21 -4 -5 -1 -5 5 -1 8 4 23 -3 37 -17 21 -21 44 -36 69 -42 4
-2 10 -4 15 -5 4 -1 -4 -6 -18 -11 -22 -8 -21 -8 8 -4 24 3 44 -2 73 -21 23
-14 46 -23 53 -21 7 3 19 1 27 -5 11 -8 10 -9 -3 -4 -29 9 -21 -3 10 -15 15
-6 47 -11 72 -10 27 0 40 -2 32 -7 -8 -6 -1 -9 20 -9 18 0 94 0 168 -1 140 -2
179 0 198 12 7 4 12 2 12 -4 0 -7 6 -8 19 0 11 5 31 10 46 10 17 0 24 4 19 12
-5 8 -2 9 9 5 9 -3 19 -2 22 3 4 6 12 10 18 10 7 0 6 -4 -3 -10 -13 -9 -13
-10 0 -10 9 0 21 5 28 12 6 6 15 8 19 4 4 -4 1 -12 -7 -17 -13 -9 -13 -10 0
-6 8 2 14 13 13 23 -2 23 56 53 92 49 14 -1 22 2 19 7 -3 5 -13 7 -23 3 -13
-5 -13 -4 -4 6 10 10 18 10 40 -1 45 -23 50 -23 19 -2 -27 19 -28 20 -9 31 11
6 24 7 28 3 3 -4 5 0 3 8 -2 10 3 14 16 12 12 -2 16 1 11 10 -6 10 -5 10 5 1
19 -17 56 3 40 21 -8 10 -4 18 17 32 16 10 32 17 36 16 5 -1 6 2 2 8 -9 14 8
13 24 -3 11 -10 12 -8 3 8 -8 16 -5 26 18 52 16 17 31 29 34 26 3 -4 6 1 6 10
0 9 5 19 12 23 7 5 8 3 3 -6 -5 -8 -4 -11 3 -6 6 4 9 13 5 21 -3 8 0 15 6 15
6 0 11 5 11 11 0 6 7 18 16 26 13 14 17 14 24 3 5 -8 6 -19 3 -25 -3 -5 2 -3
12 6 13 13 15 21 6 37 -14 27 -14 35 1 26 6 -4 8 -3 4 4 -9 15 24 93 36 86 6
-4 5 3 -1 15 -15 26 -7 27 16 1 17 -17 19 -17 19 -2 1 9 4 26 8 37 6 14 5 16
-2 6 -8 -11 -11 -11 -16 0 -3 8 -3 3 0 -11 5 -20 4 -23 -6 -13 -10 9 -9 19 4
47 9 20 19 51 22 69 12 80 25 349 22 463 l-3 126 40 -7 c47 -7 96 -13 145 -19
19 -2 37 -4 39 -5 2 -1 -2 -8 -9 -16 -10 -12 -16 -13 -26 -4 -9 7 -14 8 -14 1
0 -6 6 -12 13 -15 6 -2 9 -8 5 -12 -4 -4 -14 -2 -23 5 -8 7 -15 8 -15 2 0 -5
8 -13 17 -16 11 -5 29 5 55 31 48 47 58 39 12 -10 -19 -20 -30 -37 -24 -37 6
0 13 7 16 15 5 11 10 13 19 5 6 -5 14 -8 16 -6 2 2 5 -8 6 -22 0 -15 2 -38 4
-52 2 -14 0 -43 -4 -65 -4 -25 -3 -32 2 -20 l8 20 5 -20 c3 -11 6 32 7 96 1
144 -2 149 -110 150 -41 1 -99 4 -129 9 -45 6 -31 7 73 9 170 1 167 -1 166
164 0 71 -4 114 -8 102 l-8 -20 -6 20 c-4 11 -4 7 -1 -10 8 -48 7 -155 -1
-163 -5 -4 -5 -1 0 7 5 9 4 12 -3 7 -5 -3 -13 0 -15 6 -4 9 -6 10 -6 1 -1 -6
9 -19 21 -27 22 -16 15 -21 -22 -16 -10 1 -7 -7 10 -27 l25 -28 -31 28 c-17
15 -34 24 -39 20 -4 -5 -5 -2 -1 5 4 7 11 10 16 7 5 -3 11 -2 13 3 3 4 -6 13
-20 19 -21 10 -23 10 -13 -3 7 -8 8 -14 3 -14 -5 0 -16 9 -26 20 -16 19 -44
19 -32 0 3 -4 -4 -6 -14 -3 -13 3 -21 -1 -24 -14 -4 -15 -5 -15 -6 -1 0 9 -9
19 -18 21 -17 4 -17 5 0 6 18 1 23 26 7 36 -6 4 -7 -1 -3 -11 4 -11 2 -15 -4
-11 -25 16 -21 -26 4 -49 27 -25 27 -25 35 -5 4 12 10 21 13 21 4 0 3 -5 -1
-12 -4 -6 -3 -8 4 -4 6 3 13 2 17 -3 3 -5 -3 -14 -12 -20 -10 -6 -13 -11 -7
-11 6 0 17 6 24 14 12 15 44 11 34 -5 -3 -5 2 -6 10 -3 9 3 16 1 16 -5 0 -12
-5 -13 -90 -16 -30 -1 -75 -5 -100 -9 -32 -5 -41 -4 -30 3 8 6 11 11 5 11 -6
0 -9 41 -7 107 2 90 -6 266 -20 433 -2 19 -9 41 -15 48 -10 11 -10 20 3 45 13
29 13 30 0 13 -9 -11 -19 -17 -23 -13 -3 4 2 16 12 27 10 11 13 20 7 20 -7 0
-12 -5 -12 -11 0 -8 -5 -8 -15 1 -20 17 -19 31 3 24 14 -5 15 -4 2 5 -13 10
-13 12 0 21 8 5 10 10 5 10 -6 0 -16 -5 -23 -10 -6 -6 -10 -7 -7 -4 2 4 -5 19
-16 35 -12 17 -18 38 -15 54 3 15 1 23 -5 20 -5 -4 -6 -11 -3 -17 4 -7 2 -8
-5 -4 -6 4 -8 12 -4 19 10 16 11 67 1 61 -5 -3 -6 -14 -3 -24 4 -13 1 -18 -9
-16 -19 3 -34 16 -18 16 7 0 12 7 12 16 0 14 -3 15 -17 3 -10 -7 -15 -9 -10
-4 4 5 -5 22 -20 38 -16 17 -23 27 -17 24 7 -4 18 1 25 11 12 15 12 16 -1 6
-12 -8 -23 -6 -49 13 -19 12 -30 23 -25 23 5 0 2 5 -6 10 -9 6 -11 13 -5 18
15 11 16 29 0 29 -7 0 -11 -6 -8 -13 2 -6 -1 -15 -8 -20 -7 -4 -10 -3 -5 4 8
13 -48 54 -60 44 -4 -4 -2 1 5 11 12 15 12 20 1 30 -10 10 -12 8 -6 -6 4 -13
2 -17 -6 -15 -7 3 -13 13 -13 23 0 12 -8 19 -22 20 -12 1 -20 -2 -17 -7 3 -5
-11 3 -32 17 -20 14 -43 25 -50 25 -18 0 -13 23 6 33 8 4 3 5 -13 2 -21 -4
-27 -2 -21 6 4 8 3 9 -4 5 -15 -9 -63 4 -56 15 3 5 -1 6 -9 4 -7 -3 -26 1 -41
9 -16 8 -35 12 -44 9 -8 -4 -13 -2 -9 3 3 5 -11 15 -31 21 -34 11 -35 10 -17
-4 19 -15 19 -15 -5 -8 -14 4 -40 14 -59 21 -39 16 -55 18 -46 5 3 -6 -8 -6
-27 -1 -39 11 -258 8 -251 -2z m408 -47 c161 -43 349 -158 452 -277 25 -29 50
-51 54 -48 4 2 11 -1 15 -7 4 -8 3 -9 -4 -5 -19 12 -14 -3 17 -47 38 -56 79
-139 103 -207 46 -132 48 -165 48 -684 0 -490 0 -494 -24 -589 -87 -344 -370
-613 -719 -683 -110 -23 -341 -15 -443 15 -99 28 -215 83 -288 135 -69 49
-186 169 -235 240 -49 71 -107 200 -132 296 -22 83 -22 99 -23 600 -1 506 -1
516 22 595 25 90 86 222 132 290 86 124 218 239 357 309 92 46 122 56 243 81
97 21 323 13 425 -14z m889 -1170 c17 -19 17 -19 0 -17 -9 2 -18 10 -20 19 -3
21 -1 21 20 -2z m-284 -985 c0 -12 -5 -7 -19 24 -11 24 -11 24 3 6 9 -11 16
-24 16 -30z m-1480 -216 c0 -5 -4 -10 -10 -10 -5 0 -10 5 -10 10 0 6 5 10 10
10 6 0 10 -4 10 -10z m1240 -24 c0 -2 -7 -7 -16 -10 -8 -3 -12 -2 -9 4 6 10
25 14 25 6z"/>
<path d="M2315 3726 c-303 -61 -567 -284 -672 -570 -46 -124 -46 -129 -52
-512 l-6 -370 76 65 c115 99 218 176 276 205 66 33 85 27 175 -60 85 -82 126
-100 253 -108 114 -7 193 -25 231 -54 27 -19 27 -19 68 4 89 50 180 59 244 25
12 -7 28 -9 34 -5 6 4 8 3 5 -3 -3 -5 10 -25 29 -44 20 -19 71 -79 113 -134
89 -114 172 -194 228 -219 21 -9 46 -21 55 -26 14 -8 18 -4 25 28 4 20 8 258
8 527 0 477 -1 492 -23 579 -66 259 -238 475 -474 593 -132 66 -210 84 -378
89 -98 2 -168 -1 -215 -10z m160 -33 c-3 -16 -16 -38 -27 -50 -16 -17 -17 -23
-7 -23 25 1 49 26 55 59 4 17 10 31 14 31 4 0 10 -14 14 -31 3 -18 14 -38 24
-45 16 -12 16 -13 0 -26 -10 -7 -22 -31 -26 -53 -5 -22 -11 -33 -14 -25 -3 8
-9 29 -14 45 -7 21 -17 31 -34 33 -16 2 -20 0 -13 -5 17 -12 44 -79 35 -88 -4
-5 -1 -5 6 -1 7 4 12 2 12 -5 0 -17 21 3 44 42 11 18 13 29 6 24 -9 -5 -11 -4
-6 3 4 7 13 12 20 12 30 0 35 22 10 49 -13 14 -24 34 -24 44 0 10 -4 15 -10
12 -5 -3 -10 -2 -10 3 0 5 9 12 21 15 24 6 147 -11 171 -24 23 -12 31 -11 23
1 -3 6 1 7 9 4 9 -3 13 -11 9 -17 -4 -6 2 -8 15 -5 12 3 26 0 32 -7 6 -8 25
-17 41 -20 16 -4 29 -11 29 -17 0 -6 9 -8 20 -5 11 3 18 1 14 -4 -3 -5 2 -9
11 -9 10 0 13 -5 9 -12 -5 -8 -2 -9 9 -5 10 4 33 -6 59 -27 35 -26 43 -38 41
-60 -2 -31 6 -30 12 1 2 10 4 19 4 21 1 2 6 0 11 -3 7 -4 6 -13 -1 -26 -10
-19 -9 -20 11 -9 13 7 20 8 16 2 -6 -10 21 -27 37 -23 5 1 6 -3 3 -8 -3 -5 1
-12 10 -15 10 -4 14 -13 10 -28 -3 -13 -3 -17 0 -10 3 6 11 12 17 12 5 0 7 -3
4 -6 -3 -4 5 -15 18 -26 26 -20 36 -66 13 -52 -9 5 -9 2 1 -9 7 -9 19 -17 25
-17 6 0 4 5 -4 11 -11 8 -11 10 -1 7 7 -2 23 -22 35 -43 21 -39 25 -56 28
-120 0 -16 3 -24 5 -17 3 6 10 9 15 6 6 -4 8 -2 4 4 -3 6 -1 14 6 18 7 4 10 4
6 -1 -4 -4 0 -21 8 -37 8 -16 12 -33 9 -39 -4 -5 -2 -15 3 -22 6 -7 18 -60 26
-118 19 -129 24 -875 5 -849 -10 15 -6 -21 8 -75 l5 -20 -15 20 c-14 18 -15
16 -4 -22 12 -47 1 -73 -25 -57 -7 5 -15 9 -18 9 -3 0 -21 13 -40 29 -19 15
-30 26 -25 23 6 -3 17 -2 25 4 8 5 11 9 5 10 -5 0 -20 2 -32 3 -13 2 -20 -2
-16 -8 3 -6 -7 0 -23 14 -45 38 -50 44 -36 36 18 -11 15 5 -5 21 -10 8 -12 11
-4 7 9 -5 12 -3 7 5 -4 6 -11 9 -16 6 -5 -3 -21 12 -37 32 -15 21 -31 41 -36
44 -4 3 -5 13 -1 22 5 15 -4 22 -27 19 -4 -1 -15 8 -24 18 -11 12 -13 20 -7
20 7 0 12 -4 12 -10 0 -5 5 -10 11 -10 8 0 8 5 -1 15 -7 8 -19 15 -26 15 -8 0
-27 18 -42 40 -17 25 -33 39 -43 36 -9 -2 -24 5 -33 15 -9 11 -26 19 -38 19
-19 0 -20 2 -8 11 11 8 8 9 -15 4 -66 -12 -104 -14 -110 -5 -4 6 1 7 11 3 13
-5 15 -2 9 18 -4 13 -17 41 -28 62 l-22 39 -17 -24 c-10 -13 -24 -30 -31 -38
-8 -8 -18 -22 -22 -30 -8 -13 -7 -13 10 0 17 14 18 14 5 -10 -12 -23 -12 -24
3 -11 16 12 22 8 18 -13 -1 -4 4 -15 11 -24 7 -9 8 -13 3 -10 -6 4 -22 -2 -35
-12 -24 -18 -25 -18 -65 4 -50 28 -92 36 -219 42 -55 2 -104 8 -109 13 -5 5
-16 7 -23 4 -17 -6 -19 13 -1 21 6 3 3 4 -9 1 -23 -6 -88 37 -76 50 4 5 -1 5
-10 2 -10 -3 -20 -1 -24 5 -4 7 -3 8 4 4 22 -13 12 5 -15 29 -16 13 -34 25
-41 25 -10 0 -10 5 -1 23 9 18 9 20 -2 10 -15 -15 -33 -17 -24 -4 3 5 0 13 -6
17 -8 4 -9 3 -5 -4 5 -8 -5 -11 -33 -10 -25 1 -38 5 -35 12 3 6 -1 4 -8 -5 -8
-10 -29 -24 -48 -32 -19 -8 -51 -28 -70 -46 -38 -33 -61 -42 -39 -13 13 15 12
16 -3 4 -10 -8 -16 -17 -15 -20 1 -4 -1 -7 -5 -7 -4 0 -13 -8 -21 -19 -7 -10
-26 -18 -40 -18 -15 0 -30 -4 -33 -9 -3 -5 2 -6 10 -3 9 4 14 0 12 -10 -2 -18
-26 -45 -26 -31 0 5 -14 -4 -32 -21 -17 -16 -28 -23 -24 -16 4 6 4 12 -1 12
-7 0 -10 424 -5 609 2 47 4 52 17 41 14 -11 14 -10 5 14 -13 35 -13 39 2 30 8
-5 9 -2 5 9 -8 22 2 49 15 41 6 -4 6 1 0 13 -9 16 -5 31 18 75 16 30 26 59 22
64 -4 5 1 2 11 -5 15 -12 17 -12 11 2 -8 21 33 80 49 70 7 -4 5 2 -3 12 -14
17 -14 18 10 5 l25 -13 -19 22 c-25 28 -9 27 21 -1 13 -12 23 -16 23 -10 0 6
-9 16 -20 22 -23 12 -28 35 -6 27 11 -4 13 -1 9 11 -6 15 -5 15 10 3 9 -7 17
-12 18 -10 10 51 10 52 -8 38 -17 -12 -17 -12 0 7 15 16 19 17 28 4 8 -12 9
-10 4 8 -4 13 -2 22 4 22 6 0 11 -6 12 -12 0 -7 5 -2 11 12 6 14 10 29 9 35
-1 5 8 1 20 -10 12 -11 19 -14 14 -6 -6 11 -4 13 10 7 15 -5 16 -4 5 9 -11 13
-15 13 -21 3 -6 -9 -9 -9 -9 -1 0 19 20 26 36 12 23 -19 42 4 23 27 -8 10 -9
15 -3 11 7 -4 14 0 18 8 3 8 15 15 26 15 11 0 20 5 20 11 0 6 9 8 23 4 16 -4
18 -4 8 3 -10 8 -2 15 34 31 26 11 52 18 58 14 5 -3 7 -1 4 4 -11 18 57 40
178 58 138 20 138 20 130 -12z m-495 -164 c0 -14 -17 -10 -23 5 -4 10 -1 13 9
9 7 -3 14 -9 14 -14z m1334 -338 c-6 -6 -24 19 -24 34 1 6 7 1 15 -9 8 -11 12
-22 9 -25z m-581 -743 c8 -5 8 -10 0 -20 -6 -7 -13 -22 -15 -33 -3 -17 -7 -14
-21 15 -11 21 -14 36 -7 38 5 2 10 12 10 21 0 28 15 35 19 9 1 -12 8 -26 14
-30z m352 -228 c3 -5 1 -10 -4 -10 -6 0 -11 5 -11 10 0 6 2 10 4 10 3 0 8 -4
11 -10z"/>
<path d="M2278 3683 c6 -2 18 -2 25 0 6 3 1 5 -13 5 -14 0 -19 -2 -12 -5z"/>
<path d="M2240 3672 c0 -6 -9 -8 -20 -5 -11 3 -20 3 -20 0 0 -9 38 -15 50 -7
9 5 9 9 1 14 -6 4 -11 3 -11 -2z"/>
<path d="M2298 3663 c7 -3 16 -2 19 1 4 3 -2 6 -13 5 -11 0 -14 -3 -6 -6z"/>
<path d="M2505 3620 c-3 -5 -1 -10 4 -10 6 0 11 5 11 10 0 6 -2 10 -4 10 -3 0
-8 -4 -11 -10z"/>
<path d="M1897 3443 c-4 -3 -7 -11 -7 -17 0 -6 5 -5 12 2 6 6 9 14 7 17 -3 3
-9 2 -12 -2z"/>
<path d="M1860 3409 c0 -5 5 -7 10 -4 6 3 10 8 10 11 0 2 -4 4 -10 4 -5 0 -10
-5 -10 -11z"/>
<path d="M2008 3386 c-7 -7 -20 -11 -28 -9 -12 4 -12 3 -2 -5 11 -8 11 -13 1
-30 -22 -35 30 -116 62 -96 5 3 7 8 5 12 -2 4 3 13 10 20 13 12 14 9 9 -15 -5
-25 -4 -25 4 -6 6 12 8 30 6 40 -10 51 -18 72 -26 67 -5 -3 -6 1 -3 9 7 19
-22 29 -38 13z m36 -58 c8 -6 7 -10 -3 -17 -8 -5 -12 -19 -9 -35 3 -14 1 -26
-3 -26 -5 0 -9 5 -9 11 0 5 -4 8 -9 5 -4 -3 -6 6 -3 19 2 15 0 25 -7 25 -8 0
-8 6 -2 18 5 9 13 26 17 37 7 18 8 18 12 -5 2 -14 9 -28 16 -32z"/>
<path d="M2066 3387 c3 -10 9 -15 12 -12 3 3 0 11 -7 18 -10 9 -11 8 -5 -6z"/>
<path d="M2768 3375 c3 -18 0 -25 -12 -25 -10 0 -13 6 -10 18 5 13 4 14 -4 3
-5 -7 -15 -10 -22 -6 -17 11 -183 13 -168 2 8 -5 3 -6 -15 -2 -16 3 -26 2 -23
-3 3 -5 -11 -14 -30 -21 -18 -7 -34 -16 -34 -21 0 -5 -7 -6 -17 -3 -11 4 -14
3 -9 -5 4 -7 1 -12 -8 -12 -9 0 -16 -5 -16 -11 0 -6 -7 -8 -16 -5 -8 3 -12 2
-9 -3 3 -5 1 -12 -5 -16 -5 -3 -10 -1 -10 6 0 10 -3 10 -12 1 -10 -10 -10 -15
-1 -20 8 -5 8 -11 -1 -24 -7 -10 -16 -15 -20 -11 -4 4 -4 -1 0 -11 5 -12 4
-17 -3 -13 -10 6 -20 -16 -52 -116 -7 -20 -9 -47 -6 -58 6 -17 4 -20 -6 -13
-12 6 -12 5 -1 -8 13 -16 6 -82 -8 -73 -5 3 -6 -4 -3 -15 3 -11 10 -20 15 -20
6 0 8 7 4 15 -3 8 -1 15 4 15 13 0 13 -47 0 -55 -5 -3 -10 -12 -10 -18 0 -7 5
-4 11 6 12 21 25 22 32 3 4 -11 1 -13 -11 -9 -10 4 -8 -2 7 -14 13 -11 25 -31
26 -44 1 -15 8 -24 18 -24 21 0 43 -22 32 -32 -4 -5 -10 -2 -12 5 -3 6 -9 12
-15 12 -6 0 -5 -6 2 -15 7 -9 20 -13 30 -10 9 3 24 -3 35 -15 13 -14 14 -20 5
-20 -7 0 -10 -3 -7 -6 4 -4 15 -1 24 7 10 7 15 9 11 5 -11 -13 40 -41 87 -50
22 -4 45 -11 50 -16 6 -5 33 -8 62 -7 28 1 47 5 41 8 -5 3 0 9 11 12 12 3 19
2 17 -2 -3 -4 5 -8 17 -8 17 -2 19 0 7 8 -11 7 -4 8 22 6 21 -3 35 0 32 5 -3
5 -12 7 -20 4 -8 -3 -14 -1 -14 4 0 5 9 12 21 15 20 7 20 7 -3 27 -13 11 -36
27 -53 34 -16 7 -24 13 -17 14 7 0 10 5 7 10 -4 6 -11 8 -16 5 -9 -6 -61 29
-59 40 0 3 -7 14 -18 23 -10 9 -11 13 -3 7 12 -9 12 -7 1 12 -8 12 -18 19 -22
17 -4 -3 -8 1 -8 9 0 8 -7 28 -15 43 -24 47 -19 135 10 178 14 20 25 42 24 49
0 7 -4 2 -9 -10 -5 -13 -14 -23 -20 -23 -6 0 2 18 16 40 15 22 29 40 31 40 2
0 2 -4 -2 -9 -3 -5 -1 -13 5 -16 6 -4 10 -3 9 2 -5 27 5 45 36 66 19 13 32 28
27 33 -4 5 4 0 18 -11 17 -14 21 -15 12 -3 -9 11 -10 18 -2 23 5 3 10 2 10 -2
0 -5 12 -8 28 -7 37 2 38 2 24 16 -14 14 -16 32 -2 23 6 -3 7 1 4 9 -3 9 -10
16 -15 16 -5 0 -6 13 -3 29 3 16 2 31 -4 34 -5 4 -7 -4 -4 -18z m-52 -36 c53
-14 56 -30 10 -47 -58 -21 -130 -94 -161 -163 -24 -55 -27 -70 -23 -144 3 -66
9 -91 31 -128 43 -73 74 -104 133 -133 30 -15 53 -32 51 -38 -7 -22 -98 -37
-165 -27 -82 13 -138 41 -199 98 -26 26 -50 46 -53 45 -3 0 -6 7 -7 16 -1 9
-11 42 -22 72 -48 128 -18 255 84 357 50 50 73 65 126 82 73 23 131 26 195 10z
m64 -59 c8 -5 11 -10 5 -10 -5 0 -17 5 -25 10 -8 5 -10 10 -5 10 6 0 17 -5 25
-10z"/>
<path d="M2557 3309 c-62 -15 -112 -45 -160 -99 -56 -62 -82 -132 -80 -219 3
-126 92 -249 206 -285 50 -16 177 -27 177 -16 -1 3 -21 18 -47 34 -55 35 -116
125 -133 197 -16 66 -8 161 19 222 24 56 116 157 142 157 11 0 19 5 19 10 0
12 -90 11 -143 -1z m63 -13 c0 -9 -55 -61 -63 -58 -5 1 -6 -1 -3 -6 7 -12 -29
-64 -38 -55 -4 5 -7 1 -6 -7 5 -36 0 -53 -12 -42 -10 8 -13 4 -15 -15 -1 -20
1 -23 9 -12 6 10 7 7 2 -10 -9 -34 -11 -160 -1 -154 4 2 7 -3 7 -12 0 -9 -4
-14 -8 -11 -4 2 -8 -4 -8 -14 0 -10 4 -16 8 -14 4 3 17 -14 29 -38 14 -28 18
-43 10 -46 -6 -2 -11 -8 -11 -13 0 -4 7 -6 15 -3 8 4 15 2 15 -4 0 -6 -6 -12
-12 -15 -7 -3 -3 -4 8 -4 15 1 20 6 17 17 -4 9 0 7 10 -5 8 -11 13 -23 11 -27
-3 -5 2 -8 10 -8 8 0 18 -5 22 -11 4 -7 1 -10 -7 -7 -8 3 -25 1 -38 -4 -22 -8
-23 -7 -10 9 8 10 9 14 2 10 -7 -4 -20 -3 -30 2 -10 6 -34 15 -53 19 -23 6
-35 14 -34 25 1 10 -4 13 -14 9 -12 -4 -14 -1 -9 12 6 14 3 17 -9 12 -14 -5
-15 -4 -5 8 11 13 9 15 -9 11 -17 -3 -20 -1 -14 17 4 13 2 18 -4 14 -6 -3 -13
-2 -17 4 -3 5 -1 10 6 10 8 0 6 7 -5 19 -21 23 -30 91 -13 91 8 0 7 3 -2 9
-10 6 -12 19 -7 47 10 54 28 104 39 104 4 0 6 4 2 9 -3 6 4 8 16 6 17 -4 19
-2 8 11 -17 21 4 42 25 25 18 -15 40 -5 32 15 -7 18 20 44 47 44 18 0 19 2 7
10 -13 9 -13 10 0 10 8 0 26 3 39 7 19 5 22 3 16 -7 -5 -8 1 -7 16 3 24 17 29
20 29 13z m-163 -76 c1 -11 -2 -20 -7 -20 -10 0 -20 26 -13 34 12 11 19 6 20
-14z m78 -490 c3 -5 2 -10 -4 -10 -5 0 -13 5 -16 10 -3 6 -2 10 4 10 5 0 13
-4 16 -10z"/>
<path d="M2491 3194 c0 -11 3 -14 6 -6 3 7 2 16 -1 19 -3 4 -6 -2 -5 -13z"/>
<path d="M2465 3179 c-4 -6 -14 -8 -24 -4 -11 4 -13 3 -5 -5 12 -12 44 -4 44
11 0 12 -7 11 -15 -2z"/>
<path d="M2376 3107 c3 -10 9 -15 12 -12 3 3 0 11 -7 18 -10 9 -11 8 -5 -6z"/>
<path d="M2361 2954 c0 -11 3 -14 6 -6 3 7 2 16 -1 19 -3 4 -6 -2 -5 -13z"/>
<path d="M2791 3384 c0 -11 3 -14 6 -6 3 7 2 16 -1 19 -3 4 -6 -2 -5 -13z"/>
<path d="M2678 3383 c7 -3 16 -2 19 1 4 3 -2 6 -13 5 -11 0 -14 -3 -6 -6z"/>
<path d="M1935 3320 c3 -5 11 -10 16 -10 6 0 7 5 4 10 -3 6 -11 10 -16 10 -6
0 -7 -4 -4 -10z"/>
<path d="M1746 3294 c-3 -9 -2 -22 2 -31 6 -10 9 -5 9 16 0 35 -2 38 -11 15z"/>
<path d="M3046 3285 c-9 -26 -7 -32 5 -12 6 10 9 21 6 23 -2 3 -7 -2 -11 -11z"/>
<path d="M1930 3272 c0 -12 19 -26 26 -19 2 2 -2 10 -11 17 -9 8 -15 8 -15 2z"/>
<path d="M3071 3256 c-6 -14 -13 -26 -16 -26 -4 0 -3 5 1 12 4 7 3 8 -5 4 -6
-4 -9 -11 -7 -15 3 -3 0 -28 -5 -53 -8 -37 -16 -50 -39 -60 -16 -7 -31 -21
-34 -32 -6 -22 4 -38 11 -19 3 7 20 20 38 29 30 14 35 23 53 97 21 81 22 114
3 63z"/>
<path d="M3210 3272 c0 -12 19 -26 26 -19 2 2 -2 10 -11 17 -9 8 -15 8 -15 2z"/>
<path d="M3090 3255 c0 -3 7 -35 16 -71 13 -51 23 -69 48 -86 17 -12 33 -26
34 -30 6 -13 22 -9 22 6 0 8 -15 24 -34 35 -19 12 -37 29 -40 38 -6 15 -5 15
12 0 16 -15 20 -15 25 -4 3 9 -1 14 -10 13 -8 0 -19 6 -23 14 -4 8 -12 25 -18
37 -7 13 -12 30 -12 38 0 8 -4 15 -10 15 -5 0 -10 -2 -10 -5z"/>
<path d="M2266 3145 c-3 -9 -6 -26 -5 -38 1 -14 4 -9 9 13 9 37 7 52 -4 25z"/>
<path d="M3077 3127 c-5 -21 -15 -41 -23 -44 -18 -7 -18 -23 1 -23 8 0 17 -14
21 -36 5 -25 9 -32 15 -22 5 7 9 23 9 34 0 14 8 24 23 28 l22 7 -21 10 c-12 6
-25 27 -30 47 l-10 37 -7 -38z m10 -59 c-3 -8 -6 -5 -6 6 -1 11 2 17 5 13 3
-3 4 -12 1 -19z"/>
<path d="M2629 3138 c-5 -9 -4 -56 1 -52 5 6 8 54 3 54 -2 0 -4 -1 -4 -2z"/>
<path d="M3325 3110 c3 -5 8 -10 11 -10 2 0 4 5 4 10 0 6 -5 10 -11 10 -5 0
-7 -4 -4 -10z"/>
<path d="M2595 3090 c-3 -5 -1 -10 4 -10 6 0 11 5 11 10 0 6 -2 10 -4 10 -3 0
-8 -4 -11 -10z"/>
<path d="M2975 3050 c-3 -5 -1 -10 5 -10 6 0 8 -5 4 -11 -4 -8 1 -9 16 -4 14
5 20 3 16 -3 -3 -6 -1 -12 5 -14 5 -2 18 -34 28 -72 15 -57 19 -65 24 -44 9
34 -19 129 -45 151 -23 19 -44 22 -53 7z"/>
<path d="M3151 3046 c-26 -14 -61 -107 -65 -174 -2 -30 -2 -31 16 -15 10 9 18
21 18 27 0 6 -4 4 -10 -4 -5 -8 -13 -11 -17 -6 -4 4 -1 13 8 19 8 7 21 34 29
61 10 38 20 51 43 61 20 8 25 14 16 18 -11 4 -11 6 -1 6 7 1 10 6 7 11 -8 13
-15 12 -44 -4z"/>
<path d="M1836 2978 c-7 -13 -16 -35 -20 -50 -4 -16 -11 -28 -16 -28 -6 0 -10
-5 -10 -11 0 -5 5 -7 10 -4 12 7 13 -5 2 -20 -4 -5 -20 -17 -37 -25 -42 -22
-44 -63 -5 -72 23 -5 45 -40 42 -68 -2 -21 -1 -22 8 -10 10 12 11 11 7 -6 -5
-24 23 -66 47 -70 9 -1 16 4 16 12 0 9 5 12 11 9 6 -4 9 4 7 22 -2 16 2 27 8
26 7 -1 10 9 8 26 -4 34 15 53 55 55 15 1 28 6 28 13 0 6 -6 9 -14 6 -9 -4
-11 0 -7 10 6 17 -18 48 -53 66 -13 6 -23 17 -23 24 0 9 2 9 8 -1 6 -8 9 -2 9
18 0 19 -3 26 -8 18 -4 -7 -11 -9 -15 -5 -4 4 -2 13 4 19 18 18 14 32 -5 17
-11 -9 -14 -10 -9 -2 8 14 -10 53 -24 53 -5 0 -16 -10 -24 -22z m44 -77 c10
-44 19 -57 46 -73 19 -11 34 -23 34 -27 0 -4 -15 -14 -33 -23 -29 -14 -35 -24
-51 -89 l-19 -73 -20 73 c-17 65 -23 74 -53 89 -19 8 -34 19 -34 23 0 5 15 15
34 24 30 14 36 24 52 86 19 75 25 74 44 -10z"/>
<path d="M1846 2857 c-5 -26 -14 -41 -29 -46 l-21 -8 22 -12 c12 -6 26 -26 31
-44 l9 -32 7 33 c7 32 36 58 49 45 3 -3 6 -3 6 1 0 3 -10 10 -22 15 -14 5 -26
22 -33 47 l-11 39 -8 -38z m24 -51 c0 -3 -4 -8 -10 -11 -5 -3 -10 -1 -10 4 0
6 5 11 10 11 6 0 10 -2 10 -4z"/>
<path d="M2616 2907 c3 -10 9 -15 12 -12 3 3 0 11 -7 18 -10 9 -11 8 -5 -6z"/>
<path d="M3371 2854 c0 -11 3 -14 6 -6 3 7 2 16 -1 19 -3 4 -6 -2 -5 -13z"/>
<path d="M1970 2836 c0 -2 7 -7 16 -10 8 -3 12 -2 9 4 -6 10 -25 14 -25 6z"/>
<path d="M2685 2820 c3 -5 8 -10 11 -10 2 0 4 5 4 10 0 6 -5 10 -11 10 -5 0
-7 -4 -4 -10z"/>
<path d="M2675 2790 c3 -5 8 -10 11 -10 2 0 4 5 4 10 0 6 -5 10 -11 10 -5 0
-7 -4 -4 -10z"/>
<path d="M1698 2783 c7 -3 16 -2 19 1 4 3 -2 6 -13 5 -11 0 -14 -3 -6 -6z"/>
<path d="M3247 2758 c-9 -5 -21 -7 -25 -4 -4 2 -8 -3 -9 -12 -1 -9 -4 -28 -8
-42 -5 -19 -4 -22 4 -10 9 12 11 9 12 -15 1 -16 2 -36 2 -42 -1 -7 3 -10 9 -7
5 3 6 15 4 27 -5 18 -4 18 7 -3 12 -26 37 -38 37 -20 0 6 11 22 25 35 13 14
19 25 13 25 -7 0 -6 6 2 15 7 9 10 18 6 22 -3 3 -6 1 -6 -5 0 -7 -5 -12 -11
-12 -6 0 -9 6 -6 13 7 19 -36 47 -56 35z m41 -50 c9 -11 11 -18 4 -18 -7 0
-15 -12 -18 -26 -6 -25 -7 -25 -31 16 -14 23 -22 44 -19 47 3 4 6 1 6 -5 0
-23 18 -12 26 16 6 23 8 24 12 7 2 -11 11 -28 20 -37z"/>
<path d="M2784 2736 c2 -15 6 -29 9 -32 3 -4 5 6 3 20 -1 14 -5 29 -9 32 -3 3
-4 -6 -3 -20z"/>
<path d="M3340 2750 c-9 -6 -10 -10 -3 -10 6 0 15 5 18 10 8 12 4 12 -15 0z"/>
<path d="M2755 2740 c3 -5 8 -10 11 -10 2 0 4 5 4 10 0 6 -5 10 -11 10 -5 0
-7 -4 -4 -10z"/>
<path d="M2355 2700 c-3 -5 -1 -10 4 -10 6 0 11 5 11 10 0 6 -2 10 -4 10 -3 0
-8 -4 -11 -10z"/>
<path d="M3341 2694 c0 -11 3 -14 6 -6 3 7 2 16 -1 19 -3 4 -6 -2 -5 -13z"/>
<path d="M2770 2626 c0 -2 7 -7 16 -10 8 -3 12 -2 9 4 -6 10 -25 14 -25 6z"/>
<path d="M1901 2615 c0 -5 6 -18 13 -28 12 -16 14 -16 20 -2 3 9 2 13 -3 10
-6 -3 -14 3 -20 12 -6 10 -10 14 -10 8z"/>
<path d="M2292 2594 c-7 -7 -12 -17 -12 -22 0 -5 -7 -15 -15 -22 -9 -7 -12
-16 -8 -19 20 -15 30 -47 22 -71 -9 -24 -8 -24 6 -6 10 13 15 15 15 6 0 -7 14
1 30 18 33 35 38 63 15 82 -9 8 -12 16 -6 19 5 4 -1 11 -13 17 -16 8 -25 7
-34 -2z m28 -28 c0 -13 6 -27 13 -30 10 -5 10 -7 0 -12 -7 -3 -13 -14 -13 -25
0 -10 -4 -19 -10 -19 -5 0 -10 9 -10 19 0 11 -6 21 -12 24 -10 4 -10 7 0 18 6
7 12 21 12 31 0 10 5 18 10 18 6 0 10 -11 10 -24z"/>
<path d="M2654 2485 c-18 -14 -18 -14 4 -8 12 3 22 9 22 14 0 12 -3 11 -26 -6z"/>
<path d="M3145 2480 c2 -14 5 -33 5 -42 0 -10 9 -27 20 -38 l20 -20 -20 -20
c-11 -11 -20 -31 -20 -44 0 -41 -17 -38 -24 4 -4 28 -12 41 -28 46 l-21 6 22
17 c13 10 24 32 27 56 5 38 4 39 -10 21 -9 -11 -16 -28 -16 -38 0 -12 -5 -15
-17 -11 -10 4 -14 2 -10 -4 4 -6 -2 -13 -13 -16 -27 -7 -25 -24 5 -40 14 -7
33 -28 43 -47 9 -19 22 -35 28 -37 6 -2 26 18 43 46 33 51 35 96 5 108 -8 3
-14 20 -14 42 0 24 -3 31 -9 22 -7 -11 -10 -11 -15 0 -3 8 -4 3 -1 -11z m-75
-100 c0 -5 -4 -10 -10 -10 -5 0 -10 5 -10 10 0 6 5 10 10 10 6 0 10 -4 10 -10z"/>
<path d="M3181 2474 c0 -11 3 -14 6 -6 3 7 2 16 -1 19 -3 4 -6 -2 -5 -13z"/>
<path d="M2250 2469 c0 -5 5 -7 10 -4 6 3 10 8 10 11 0 2 -4 4 -10 4 -5 0 -10
-5 -10 -11z"/>
<path d="M2780 2420 c6 -11 13 -20 16 -20 2 0 0 9 -6 20 -6 11 -13 20 -16 20
-2 0 0 -9 6 -20z"/>
<path d="M2458 2423 c6 -2 18 -2 25 0 6 3 1 5 -13 5 -14 0 -19 -2 -12 -5z"/>
<path d="M1680 2399 c0 -5 5 -7 10 -4 6 3 10 8 10 11 0 2 -4 4 -10 4 -5 0 -10
-5 -10 -11z"/>
<path d="M2443 2403 c9 -2 23 -2 30 0 6 3 -1 5 -18 5 -16 0 -22 -2 -12 -5z"/>
<path d="M2640 2385 c0 -2 6 -8 13 -14 10 -8 14 -7 14 2 0 8 -6 14 -14 14 -7
0 -13 -1 -13 -2z"/>
<path d="M2610 2355 c0 -7 30 -13 34 -7 3 4 -4 9 -15 9 -10 1 -19 0 -19 -2z"/>
<path d="M3000 2326 c0 -2 8 -10 18 -17 15 -13 16 -12 3 4 -13 16 -21 21 -21
13z"/>
<path d="M3070 2278 c0 -3 11 -17 25 -32 14 -15 25 -23 25 -18 0 5 -11 19 -25
32 -14 13 -25 21 -25 18z"/>
<path d="M1923 2506 c-48 -28 -216 -159 -285 -224 -44 -41 -48 -49 -48 -91 l0
-46 16 30 c33 64 152 189 259 273 64 50 114 76 60 31 -22 -18 -55 -48 -72 -65
-18 -18 -33 -29 -33 -26 0 3 -20 -13 -44 -37 -25 -24 -44 -49 -43 -55 1 -6 -3
-10 -10 -9 -16 3 -75 -66 -67 -79 4 -7 2 -8 -4 -4 -7 4 -22 -10 -37 -33 -30
-48 -33 -118 -11 -233 20 -102 29 -124 44 -106 9 11 9 30 1 75 -13 71 0 156
32 217 12 23 72 93 134 158 63 64 121 131 130 148 16 30 14 30 -27 -12 -24
-23 -80 -76 -125 -116 -67 -60 -89 -86 -120 -148 -33 -68 -37 -84 -37 -157 -1
-45 2 -100 6 -122 l7 -40 -15 45 c-10 31 -14 71 -11 127 3 69 9 93 40 155 22
46 56 94 91 128 30 30 52 58 50 62 -3 4 1 6 8 3 16 -6 168 138 168 159 0 21
-7 20 -57 -8z m-290 -361 c-3 -9 -8 -14 -10 -11 -3 3 -2 9 2 15 9 16 15 13 8
-4z"/>
<path d="M1995 2480 c-21 -64 -82 -145 -185 -245 -45 -44 -93 -102 -107 -129
-28 -55 -39 -131 -29 -199 l7 -46 82 54 c140 91 229 126 390 155 99 17 245 72
261 98 12 20 -14 23 -42 4 -39 -27 -100 -55 -125 -56 -12 -1 -27 -5 -33 -8
-15 -10 -102 -22 -148 -21 -27 1 -35 -2 -25 -8 10 -6 8 -9 -11 -9 -14 0 -40
-9 -57 -20 -19 -11 -40 -17 -49 -13 -11 4 -15 2 -11 -4 6 -10 -64 -43 -90 -43
-7 0 -16 -6 -20 -12 -12 -19 -49 -47 -39 -30 7 11 4 12 -12 3 -11 -6 -22 -17
-26 -26 -3 -8 -10 -15 -16 -15 -6 0 -9 4 -5 9 3 5 1 12 -3 15 -11 7 -3 107 9
120 13 15 11 28 -3 20 -9 -5 -9 -3 1 9 7 9 17 14 22 12 11 -8 31 33 23 47 -5
7 -3 8 6 3 10 -6 12 -4 7 9 -6 14 -3 16 16 11 15 -4 18 -3 9 3 -11 8 -9 14 9
31 12 11 28 21 34 21 5 0 15 10 20 23 6 12 18 21 28 20 12 -1 17 4 13 14 -3 8
-2 12 3 9 5 -3 12 1 15 10 4 10 2 13 -7 8 -6 -4 4 7 23 24 19 17 41 29 47 27
7 -2 12 -1 12 3 -1 4 0 9 1 12 8 22 7 39 -3 33 -7 -3 -4 2 5 13 15 18 18 23
18 40 0 4 8 0 18 -7 13 -10 12 -8 -3 10 -11 14 -14 21 -6 16 11 -6 13 -4 7 10
-7 18 -6 18 14 0 11 -10 18 -25 16 -32 -3 -7 -1 -13 3 -13 5 0 11 4 13 9 2 4
12 -1 23 -11 20 -19 20 -19 0 -13 -14 5 -16 4 -7 -2 7 -6 12 -15 10 -22 -2 -7
8 -20 22 -29 22 -14 23 -15 13 -1 -7 9 -10 19 -6 23 4 4 -1 4 -11 0 -14 -5
-17 -4 -12 4 10 16 18 15 42 -4 10 -8 13 -13 7 -9 -7 3 -13 4 -13 1 0 -3 23
-15 50 -27 28 -12 50 -24 50 -28 0 -6 36 -9 137 -10 34 0 79 -7 99 -16 20 -8
40 -12 45 -9 5 3 9 -4 9 -15 0 -11 -5 -23 -12 -27 -7 -5 -9 -2 -4 7 5 10 4 10
-6 -1 -21 -25 -72 -55 -87 -52 -7 2 -11 -2 -8 -10 6 -19 28 -14 76 18 24 16
60 39 79 51 l36 22 -24 9 c-14 6 -38 15 -55 22 -16 6 -81 16 -144 21 -143 11
-193 33 -288 123 -39 36 -73 66 -76 66 -3 0 -13 -22 -22 -50z m-5 -94 c0 -2
-7 -7 -16 -10 -8 -3 -12 -2 -9 4 6 10 25 14 25 6z m-247 -271 c-3 -9 -8 -14
-10 -11 -3 3 -2 9 2 15 9 16 15 13 8 -4z"/>
<path d="M2762 2319 c-90 -45 -174 -151 -259 -329 -83 -173 -153 -228 -374
-296 -139 -42 -229 -83 -287 -131 l-44 -36 54 -54 c76 -79 146 -128 251 -178
119 -56 212 -77 365 -82 135 -5 237 10 347 52 35 13 67 20 71 17 5 -4 3 0 -4
10 -10 12 -10 18 -1 24 8 4 9 3 5 -4 -24 -39 91 21 187 97 79 63 165 162 214
246 35 61 78 159 87 201 6 29 5 31 -49 53 -69 29 -156 108 -238 216 -77 101
-154 183 -189 201 -38 20 -86 17 -136 -7z m105 -13 c31 -1 102 -57 95 -75 -4
-11 -1 -13 13 -8 15 6 16 5 5 -8 -11 -13 -10 -14 2 -10 16 6 45 -21 34 -32 -4
-4 -12 -1 -17 7 -9 13 -10 13 -6 0 2 -8 13 -15 25 -14 12 0 19 -3 16 -8 -3 -5
0 -15 6 -23 6 -8 9 -19 6 -24 -4 -5 -1 -13 5 -16 5 -4 8 -14 5 -22 -3 -8 -2
-11 3 -8 5 3 12 1 16 -5 3 -5 1 -10 -6 -10 -7 0 -10 -3 -6 -6 3 -3 11 -3 17 1
7 4 4 16 -10 35 -16 22 -17 30 -8 36 7 4 10 3 5 -1 -8 -10 22 -47 33 -40 5 3
6 -5 3 -17 -4 -19 -3 -20 6 -8 10 13 13 11 10 -6 -2 -13 85 -93 95 -87 6 4 5
0 -1 -9 -17 -20 -5 -30 21 -16 19 10 20 10 6 -7 -14 -16 -13 -17 7 -11 13 4
26 1 35 -7 8 -8 24 -18 36 -21 12 -4 20 -11 17 -16 -3 -5 0 -10 5 -12 7 -2 6
-14 -3 -36 -7 -18 -17 -29 -21 -25 -4 4 -4 0 0 -10 7 -19 -11 -24 -20 -4 -3 6
-2 -1 1 -17 4 -19 -1 -43 -15 -70 -11 -23 -23 -49 -26 -60 -5 -14 -9 -16 -20
-7 -12 10 -14 7 -12 -14 2 -14 1 -23 -2 -21 -2 3 -18 -13 -34 -35 -16 -22 -33
-37 -38 -34 -6 3 -10 -3 -10 -13 0 -23 -25 -46 -39 -37 -6 3 -9 0 -6 -7 3 -7
-12 -23 -35 -37 -21 -14 -37 -28 -34 -33 3 -4 -3 -5 -12 -1 -12 4 -15 3 -10
-5 4 -7 1 -12 -8 -12 -9 0 -16 -5 -16 -11 0 -8 -5 -7 -15 1 -13 11 -14 10 -9
-4 4 -10 1 -16 -9 -16 -8 0 -20 -7 -27 -15 -7 -9 -19 -14 -25 -11 -7 2 -22 -2
-34 -10 -12 -8 -25 -13 -30 -9 -5 3 -12 1 -16 -5 -3 -5 -1 -10 6 -10 7 0 10
-3 7 -6 -6 -5 -44 -13 -80 -17 -10 -1 -18 -5 -18 -10 0 -4 -4 -6 -9 -3 -4 3
-23 1 -42 -5 -66 -19 -288 -17 -359 3 -8 3 -36 8 -63 13 -54 8 -120 39 -109
50 4 4 -4 2 -18 -5 -14 -7 -22 -9 -18 -5 9 10 -45 45 -68 45 -14 0 -15 2 -3
17 12 15 12 16 -4 10 -12 -5 -25 -1 -35 11 -10 10 -12 11 -7 3 9 -12 7 -12
-13 -2 -15 8 -21 18 -18 27 3 9 1 12 -5 9 -13 -9 -48 15 -92 61 l-35 37 29 24
c16 14 33 22 39 18 6 -3 7 0 4 9 -7 18 32 37 55 28 9 -3 12 -1 7 6 -5 8 -2 10
8 6 9 -3 16 -2 16 4 0 9 35 25 51 24 3 -1 28 6 55 14 32 9 50 11 52 4 2 -5 13
-9 25 -9 16 1 17 3 5 6 -9 2 -19 12 -23 21 -5 14 -4 15 6 5 7 -7 20 -13 29
-13 13 0 13 1 0 10 -13 8 -12 10 3 10 10 0 34 7 55 17 20 9 44 15 52 14 8 -2
12 0 8 5 -4 4 0 13 10 20 14 10 21 10 40 -2 13 -9 26 -13 30 -10 10 11 11 37
1 30 -5 -3 -7 -10 -4 -15 4 -5 2 -9 -4 -9 -15 0 -23 18 -11 25 6 4 8 11 5 16
-4 5 2 6 12 2 10 -3 15 -3 11 2 -4 4 -3 14 3 22 12 14 34 19 25 5 -2 -4 6 -8
19 -8 14 0 27 6 29 13 6 13 -15 14 -25 0 -3 -4 -12 0 -20 9 -9 12 -10 15 -1
10 6 -4 12 -3 12 3 0 6 8 7 18 4 15 -6 15 -4 4 9 -11 14 -11 18 1 25 8 4 27
34 42 65 15 32 31 55 36 52 5 -3 6 3 2 12 -4 12 -3 15 5 10 8 -5 10 -2 6 8 -4
11 0 16 12 16 13 0 15 3 7 8 -16 10 19 79 37 74 6 -1 9 2 6 7 -8 13 4 42 15
35 5 -3 9 0 9 6 0 21 53 81 66 76 8 -3 13 -1 11 4 -3 15 96 70 113 63 8 -3 25
-6 37 -7z"/>
<path d="M2800 2299 c-13 -9 -12 -10 3 -5 10 3 27 1 38 -4 12 -7 25 -7 36 -1
14 8 13 9 -7 8 -14 0 -32 3 -40 6 -8 4 -22 2 -30 -4z"/>
<path d="M2689 2239 c-7 -37 -7 -40 6 -29 10 8 14 7 18 -2 3 -8 6 -8 6 -2 1
10 -28 42 -30 33z"/>
<path d="M2975 2150 c3 -5 8 -10 11 -10 2 0 4 5 4 10 0 6 -5 10 -11 10 -5 0
-7 -4 -4 -10z"/>
<path d="M3005 2130 c3 -5 8 -10 11 -10 2 0 4 5 4 10 0 6 -5 10 -11 10 -5 0
-7 -4 -4 -10z"/>
<path d="M2594 2089 c-19 -22 -19 -22 4 -10 12 6 22 16 22 21 0 15 -5 12 -26
-11z"/>
<path d="M2616 2064 c-5 -14 -4 -15 9 -4 17 14 19 20 6 20 -5 0 -12 -7 -15
-16z"/>
<path d="M3124 1998 c-4 -6 -3 -8 3 -5 13 8 36 -17 25 -28 -4 -5 -1 -5 6 -1
11 6 10 12 -4 27 -20 22 -21 22 -30 7z"/>
<path d="M2541 1923 c0 -12 -9 -27 -18 -32 -10 -6 -13 -11 -7 -11 18 0 36 27
31 47 -4 14 -5 14 -6 -4z"/>
<path d="M2325 1740 c-3 -5 -1 -10 4 -10 6 0 11 5 11 10 0 6 -2 10 -4 10 -3 0
-8 -4 -11 -10z"/>
<path d="M3125 1549 c-4 -6 -5 -12 -2 -15 2 -3 7 2 10 11 7 17 1 20 -8 4z"/>
<path d="M1890 1475 c0 -2 6 -8 13 -14 10 -8 14 -7 14 2 0 8 -6 14 -14 14 -7
0 -13 -1 -13 -2z"/>
<path d="M1979 1463 c-13 -16 -12 -17 4 -4 9 7 17 15 17 17 0 8 -8 3 -21 -13z"/>
<path d="M2217 1289 c7 -7 15 -10 18 -7 3 3 -2 9 -12 12 -14 6 -15 5 -6 -5z"/>
<path d="M2748 1283 c6 -2 18 -2 25 0 6 3 1 5 -13 5 -14 0 -19 -2 -12 -5z"/>
<path d="M1935 2310 c-3 -6 1 -7 9 -4 18 7 21 14 7 14 -6 0 -13 -4 -16 -10z"/>
<path d="M2310 2300 c8 -5 22 -9 30 -9 10 0 8 3 -5 9 -27 12 -43 12 -25 0z"/>
<path d="M2393 2303 c4 -6 2 -13 -5 -15 -8 -3 -6 -6 4 -10 17 -7 19 15 3 29
-4 4 -5 3 -2 -4z"/>
<path d="M2428 2303 c7 -3 16 -2 19 1 4 3 -2 6 -13 5 -11 0 -14 -3 -6 -6z"/>
<path d="M2451 2291 c-10 -7 -7 -9 12 -8 14 1 23 5 20 10 -6 9 -15 9 -32 -2z"/>
<path d="M2620 2265 c-25 -19 -49 -35 -53 -35 -10 0 -132 -85 -164 -113 -13
-11 -23 -18 -23 -14 0 3 -26 -6 -57 -20 -32 -14 -98 -31 -147 -39 -49 -7 -112
-20 -140 -28 -111 -32 -354 -175 -339 -198 4 -7 1 -8 -6 -4 -7 5 -21 0 -31 -9
-16 -14 -17 -22 -8 -39 6 -11 12 -23 14 -25 1 -1 35 25 75 60 40 34 88 71 106
82 18 10 33 23 33 28 0 5 3 8 8 8 19 -3 33 2 28 10 -3 5 2 15 12 22 15 13 16
12 3 -3 -7 -10 -11 -18 -8 -18 10 0 121 42 132 50 6 4 18 6 28 5 20 -4 23 11
5 19 -7 3 1 3 17 0 24 -5 27 -3 15 6 -13 10 -13 11 2 6 10 -3 36 1 59 9 61 22
61 10 1 -18 -29 -13 -49 -26 -46 -29 2 -3 -5 -6 -18 -6 -34 0 -227 -78 -272
-110 -40 -27 -48 -43 -25 -51 7 -2 9 1 4 9 -5 9 -4 11 4 6 6 -4 14 0 17 9 8
19 59 47 69 37 5 -4 5 -2 1 5 -4 8 3 11 21 11 43 -1 53 1 53 12 0 5 -8 7 -17
3 -10 -3 -15 -3 -12 1 4 4 19 9 34 12 16 3 36 9 46 15 10 5 24 8 31 7 7 -2 12
2 11 9 -2 7 8 10 26 8 19 -3 31 1 35 11 3 8 10 14 16 14 6 0 19 7 27 16 10 10
25 13 42 9 17 -4 21 -3 12 3 -8 6 -9 12 -3 16 6 3 13 0 15 -6 4 -10 6 -10 6
-1 1 7 11 17 24 23 21 11 21 10 3 -4 -11 -9 -16 -16 -12 -16 5 0 -2 -9 -16
-19 -14 -11 -33 -19 -44 -17 -10 2 -13 1 -7 -1 10 -3 10 -7 0 -18 -6 -7 -16
-10 -21 -7 -5 3 -6 -1 -1 -8 6 -10 4 -12 -8 -7 -10 3 -17 3 -17 -2 0 -4 -14
-7 -30 -6 -21 1 -34 -4 -41 -17 -8 -14 -6 -18 6 -18 10 0 13 5 9 12 -4 6 -3 8
4 4 6 -3 36 3 67 15 42 16 73 38 127 92 39 40 68 64 65 55 -3 -9 -1 -18 5 -20
7 -3 2 -14 -11 -27 -16 -16 -20 -26 -13 -33 7 -7 19 4 37 33 41 66 92 125 128
151 24 17 17 6 -26 -42 -32 -35 -55 -70 -52 -78 2 -7 1 -11 -4 -8 -5 3 -20
-12 -35 -34 -29 -44 -32 -55 -13 -44 7 4 9 3 4 -2 -5 -5 -12 -9 -16 -9 -3 0
-27 -19 -51 -43 -52 -50 -142 -96 -290 -147 -119 -42 -157 -60 -218 -104 -26
-20 -40 -36 -36 -43 6 -9 9 -9 12 0 2 7 8 10 13 6 5 -3 9 -1 9 5 0 13 81 71
92 65 15 -10 8 -22 -11 -17 -11 3 -21 -2 -24 -11 -4 -9 -14 -16 -22 -16 -9 0
-14 -4 -11 -8 3 -5 -6 -15 -19 -22 -14 -7 -25 -18 -25 -24 0 -5 -6 -2 -13 8
-12 17 -14 17 -27 1 -13 -15 -12 -19 8 -35 12 -10 22 -22 22 -28 0 -5 19 9 42
30 37 34 164 105 200 112 19 4 125 36 193 58 81 27 156 78 197 135 19 27 61
101 92 166 45 91 72 133 120 182 67 71 66 84 -4 30z m-56 -79 c-22 -24 -68
-93 -103 -152 -117 -199 -144 -222 -320 -278 -122 -39 -251 -102 -311 -153
-21 -18 -42 -33 -46 -33 -13 0 39 50 73 71 18 12 31 24 28 29 -3 4 1 7 8 6 6
0 49 18 94 42 46 23 88 42 95 42 7 0 25 7 41 14 15 8 27 11 27 5 0 -5 5 -9 11
-9 5 0 8 4 5 9 -3 5 10 12 29 15 43 8 73 35 53 48 -10 8 -10 9 2 5 8 -2 14
-10 12 -16 -3 -13 6 -10 51 22 17 11 26 25 23 34 -3 8 -2 12 3 9 13 -8 42 30
106 139 32 55 69 112 82 126 13 14 23 32 21 40 -2 9 4 13 15 11 9 -2 20 4 23
13 4 9 9 14 11 11 3 -3 -12 -25 -33 -50z m-780 -328 c-16 -13 -30 -26 -32 -30
-2 -5 -9 -8 -15 -8 -13 1 53 59 67 60 5 0 -4 -10 -20 -22z m508 5 c-6 -2 -9
-10 -6 -15 4 -7 2 -8 -5 -4 -13 9 -5 26 12 25 9 0 8 -2 -1 -6z m-82 -38 c0 -2
-10 -9 -22 -15 -22 -11 -22 -10 -4 4 21 17 26 19 26 11z m-266 -116 c-3 -5
-10 -7 -15 -3 -5 3 -7 10 -3 15 3 5 10 7 15 3 5 -3 7 -10 3 -15z"/>
<path d="M2415 2260 c-3 -5 -1 -10 4 -10 6 0 11 5 11 10 0 6 -2 10 -4 10 -3 0
-8 -4 -11 -10z"/>
<path d="M1870 2239 c0 -5 5 -7 10 -4 6 3 10 8 10 11 0 2 -4 4 -10 4 -5 0 -10
-5 -10 -11z"/>
<path d="M1896 2223 c-6 -14 -5 -15 5 -6 7 7 10 15 7 18 -3 3 -9 -2 -12 -12z"/>
<path d="M2430 2229 c0 -5 5 -7 10 -4 6 3 10 8 10 11 0 2 -4 4 -10 4 -5 0 -10
-5 -10 -11z"/>
<path d="M1810 2195 c-7 -9 -8 -15 -2 -15 5 0 12 7 16 15 3 8 4 15 2 15 -2 0
-9 -7 -16 -15z"/>
<path d="M2358 2183 c7 -3 16 -2 19 1 4 3 -2 6 -13 5 -11 0 -14 -3 -6 -6z"/>
<path d="M1822 2164 c-7 -8 -8 -14 -3 -14 10 0 25 19 20 25 -2 1 -10 -3 -17
-11z"/>
<path d="M1790 2136 c0 -2 7 -7 16 -10 8 -3 12 -2 9 4 -6 10 -25 14 -25 6z"/>
<path d="M2307 2005 c-56 -65 -88 -82 -245 -136 -134 -47 -175 -66 -167 -79 3
-6 0 -7 -8 -4 -9 3 -47 -22 -93 -60 -74 -62 -109 -80 -69 -36 16 18 14 24 -7
22 -3 -1 -9 5 -12 13 -3 9 0 12 10 8 9 -3 14 0 12 8 -2 8 5 14 16 14 10 0 22
10 27 23 9 23 24 29 34 13 7 -12 -46 -50 -62 -44 -6 2 -10 -4 -8 -14 3 -23 19
-19 53 13 58 54 231 144 277 144 17 0 13 32 -5 38 -7 3 -10 0 -6 -7 5 -7 -1
-11 -16 -11 -18 0 -20 -2 -8 -10 12 -8 9 -10 -12 -10 -16 0 -28 -4 -28 -9 0
-5 -12 -8 -26 -6 -15 1 -28 -3 -31 -11 -3 -8 -9 -11 -15 -8 -5 3 -16 -2 -24
-12 -13 -18 -14 -18 -8 1 4 14 -5 8 -28 -17 -32 -33 -36 -35 -51 -21 -14 14
-21 11 -75 -34 -59 -50 -59 -50 -45 -79 39 -77 38 -76 80 -36 21 19 37 40 35
45 -1 4 1 6 6 3 5 -3 38 10 73 28 35 19 110 50 166 70 86 30 177 69 192 82 3
2 -2 10 -10 17 -8 6 -12 11 -10 10 2 -1 13 3 25 9 19 10 19 9 8 -4 -29 -36 8
-24 54 16 44 39 47 45 34 61 -13 15 -12 19 4 30 10 8 16 19 14 25 -2 6 -25
-14 -51 -45z m16 -26 c-8 -8 -13 -7 -18 2 -5 8 -4 10 3 5 7 -4 12 -2 12 5 0 7
3 9 7 6 4 -4 2 -12 -4 -18z m-24 -36 c-6 -7 -15 -10 -20 -7 -13 8 -3 21 15 21
12 0 13 -4 5 -14z m-113 -55 c4 -6 3 -8 -3 -5 -6 4 -13 0 -17 -8 -3 -8 -12
-15 -19 -15 -8 0 -20 -6 -26 -14 -7 -8 -26 -14 -44 -14 -17 1 -33 -4 -35 -10
-2 -6 -10 -8 -18 -5 -8 3 -14 1 -14 -4 0 -6 -12 -15 -26 -21 -14 -7 -23 -8
-19 -2 3 5 2 10 -4 10 -5 0 -13 -4 -16 -10 -3 -5 -14 -10 -23 -10 -9 1 3 10
28 22 25 12 48 21 53 20 4 -1 7 3 7 9 0 5 5 7 10 4 6 -4 23 0 40 8 21 11 30
12 34 3 3 -7 9 -5 16 7 6 9 16 17 21 17 6 0 17 7 25 15 18 18 21 18 30 3z
m-301 -128 c-3 -5 -11 -10 -16 -10 -6 0 -7 5 -4 10 3 6 11 10 16 10 6 0 7 -4
4 -10z m-29 -22 c4 -7 4 -10 -1 -6 -4 4 -15 2 -24 -5 -14 -11 -14 -10 -2 6 16
20 18 21 27 5z"/>
<path d="M1780 1779 c0 -5 5 -7 10 -4 6 3 10 8 10 11 0 2 -4 4 -10 4 -5 0 -10
-5 -10 -11z"/>
<path d="M2188 3783 c7 -3 16 -2 19 1 4 3 -2 6 -13 5 -11 0 -14 -3 -6 -6z"/>
<path d="M1582 3750 c-9 -14 -9 -20 -1 -20 8 0 8 -4 0 -14 -8 -10 -9 -16 -1
-21 5 -3 10 -5 11 -3 2 6 6 78 5 78 -1 0 -7 -9 -14 -20z"/>
<path d="M3924 3709 c-4 -7 -3 -9 4 -5 5 3 13 0 15 -6 4 -9 6 -10 6 -1 1 17
-16 25 -25 12z"/>
<path d="M3960 3716 c0 -2 9 -6 20 -9 11 -3 18 -1 14 4 -5 9 -34 13 -34 5z"/>
<path d="M960 3700 c0 -4 11 -10 25 -12 14 -3 25 -2 25 2 0 4 -11 10 -25 12
-14 3 -25 2 -25 -2z"/>
<path d="M2980 3680 c20 -13 33 -13 25 0 -3 6 -14 10 -23 10 -15 0 -15 -2 -2
-10z"/>
<path d="M3443 3675 c0 -7 6 -11 14 -8 7 3 13 6 13 8 0 2 -6 5 -13 8 -8 3 -14
-1 -14 -8z"/>
<path d="M3810 3686 c0 -2 7 -7 16 -10 8 -3 12 -2 9 4 -6 10 -25 14 -25 6z"/>
<path d="M1530 3655 c0 -8 4 -15 10 -15 5 0 7 7 4 15 -4 8 -8 15 -10 15 -2 0
-4 -7 -4 -15z"/>
<path d="M3950 3610 c-22 -17 -23 -20 -7 -25 9 -4 14 -12 10 -19 -3 -6 3 -2
15 8 24 21 30 34 9 20 -7 -5 -5 -2 5 7 9 9 14 19 11 23 -10 9 -16 7 -43 -14z"/>
<path d="M1790 3546 c0 -2 7 -9 15 -16 9 -7 15 -8 15 -2 0 5 -7 12 -15 16 -8
3 -15 4 -15 2z"/>
<path d="M1130 3510 c8 -5 20 -10 25 -10 6 0 3 5 -5 10 -8 5 -19 10 -25 10 -5
0 -3 -5 5 -10z"/>
<path d="M1701 3464 c0 -11 3 -14 6 -6 3 7 2 16 -1 19 -3 4 -6 -2 -5 -13z"/>
<path d="M1721 3442 c-17 -31 -13 -40 5 -14 9 13 14 26 11 29 -3 2 -10 -4 -16
-15z"/>
<path d="M845 3304 c-10 -8 -15 -14 -10 -14 5 0 0 -7 -11 -16 -10 -8 -12 -12
-4 -8 10 5 9 1 -3 -14 -11 -11 -16 -25 -13 -31 6 -9 -9 -99 -21 -131 -3 -8 -5
-26 -4 -40 2 -20 0 -22 -9 -10 -9 11 -10 7 -4 -20 3 -19 11 -43 16 -53 8 -15
12 -16 26 -5 12 10 14 10 8 1 -5 -9 1 -13 21 -12 25 0 26 1 8 9 -19 9 -19 9 3
16 12 3 22 14 21 23 0 10 -2 11 -6 4 -2 -7 -9 -13 -15 -13 -7 0 -7 4 -1 13 6
6 13 25 17 41 7 27 9 28 44 21 20 -4 47 -6 60 -6 13 0 40 -7 60 -17 20 -10 51
-17 69 -17 22 1 29 -3 23 -10 -7 -8 -5 -12 5 -12 8 0 15 4 15 9 0 4 7 8 15 8
8 0 15 -4 15 -8 0 -5 7 -9 15 -9 8 0 12 4 10 8 -3 3 2 12 10 19 17 14 20 50 5
50 -5 0 -10 6 -10 14 0 8 -7 17 -16 20 -24 9 -31 7 -14 -5 12 -8 10 -9 -10 -5
-14 3 -36 6 -50 7 -20 1 -18 3 10 9 35 8 35 8 -10 8 -63 1 -134 13 -138 23 -2
5 -8 9 -13 9 -6 0 -7 -4 -4 -10 3 -5 -9 -3 -27 5 -23 9 -32 19 -30 32 2 10 3
26 3 35 0 19 25 31 42 21 7 -4 6 1 -2 10 -8 10 -11 21 -7 24 4 4 11 1 16 -7
11 -18 12 -3 1 24 -6 16 -9 15 -23 -14 -15 -31 -16 -31 -21 -8 -9 34 -38 49
-62 32z m20 -14 c-3 -5 1 -10 9 -10 9 0 16 -1 16 -2 0 -2 -7 -28 -15 -58 -20
-73 -19 -80 8 -81 12 0 87 -15 167 -33 128 -29 145 -35 142 -52 -2 -10 -5 -20
-5 -21 -1 0 -76 16 -167 37 -111 26 -167 35 -172 27 -7 -11 -23 -97 -20 -109
1 -5 -7 -8 -18 -8 -26 0 -26 1 10 161 34 150 37 159 45 159 4 0 3 -4 0 -10z"/>
<path d="M4111 3294 c-14 -13 -22 -26 -18 -30 4 -4 1 -14 -6 -22 -9 -13 -9
-14 1 -8 7 4 12 2 12 -6 0 -7 3 -22 6 -34 7 -25 -25 -42 -73 -39 -18 1 -33 -1
-33 -5 0 -11 -37 -19 -60 -13 -11 3 -17 9 -14 14 3 5 -3 6 -13 2 -15 -6 -13
-9 12 -20 21 -10 23 -13 8 -9 -25 5 -123 -23 -145 -42 -8 -6 -18 -9 -22 -5 -4
4 -4 0 0 -10 3 -9 11 -14 16 -11 6 4 6 -2 -1 -14 -9 -16 -7 -19 7 -18 10 0 16
-5 14 -13 -3 -12 0 -12 12 -2 10 8 30 10 59 6 25 -4 47 -3 50 2 3 5 -8 8 -26
6 l-32 -2 35 9 c19 5 46 7 60 5 19 -4 22 -3 10 5 -13 9 -13 10 0 11 21 1 59 7
98 15 21 4 32 2 32 -5 0 -18 18 -13 22 7 2 9 12 -11 21 -45 11 -38 23 -63 32
-63 7 0 21 -3 30 -6 9 -4 15 -3 14 2 -1 5 0 16 4 24 9 26 17 117 7 95 -7 -17
-9 -15 -9 13 -1 18 -5 31 -10 28 -5 -3 -11 11 -14 32 -8 59 -18 103 -29 131
-6 14 -11 29 -10 32 2 14 -25 4 -47 -17z m63 -136 c16 -73 31 -143 34 -155 3
-18 0 -23 -15 -23 -11 0 -20 6 -20 13 0 6 -5 36 -12 65 -10 41 -17 52 -30 48
-16 -5 -152 -36 -263 -61 -53 -11 -57 -11 -61 7 -6 22 -8 21 88 42 176 38 225
50 234 55 6 4 4 29 -4 66 -14 57 -10 74 15 75 3 0 18 -60 34 -132z"/>
<path d="M970 3046 c0 -2 9 -6 20 -9 11 -3 18 -1 14 4 -5 9 -34 13 -34 5z"/>
<path d="M740 3018 c0 -19 -2 -20 -10 -8 -6 10 -7 2 -3 -25 7 -51 13 -57 13
-16 0 18 4 30 9 27 4 -3 6 6 3 19 -6 31 -12 32 -12 3z"/>
<path d="M3982 3014 c-7 -8 -8 -14 -3 -14 10 0 25 19 20 25 -2 1 -10 -3 -17
-11z"/>
<path d="M755 2960 c3 -5 8 -10 11 -10 2 0 4 5 4 10 0 6 -5 10 -11 10 -5 0 -7
-4 -4 -10z"/>
<path d="M818 2933 c6 -2 18 -2 25 0 6 3 1 5 -13 5 -14 0 -19 -2 -12 -5z"/>
<path d="M4200 2932 c0 -5 7 -9 15 -9 8 0 12 4 9 9 -3 4 -9 8 -15 8 -5 0 -9
-4 -9 -8z"/>
<path d="M1223 2738 c1 -13 -2 -52 -7 -86 -4 -41 -4 -62 2 -58 6 3 8 -3 5 -14
-8 -30 -20 -33 -37 -9 -8 12 -19 18 -25 15 -5 -4 -12 -2 -16 3 -3 6 -12 8 -21
4 -13 -5 -13 -8 2 -24 10 -12 12 -19 5 -19 -6 0 -19 13 -30 30 -10 16 -21 27
-26 22 -4 -4 -5 1 -2 11 4 9 2 17 -3 17 -6 0 -10 8 -10 18 -1 11 -5 7 -13 -11
-7 -16 -23 -35 -37 -44 -14 -8 -17 -12 -7 -9 10 3 25 6 32 6 8 0 16 10 18 23
4 22 4 22 6 0 0 -12 9 -24 19 -26 16 -4 16 -5 0 -6 -12 -1 -18 -9 -18 -27 0
-14 -4 -23 -9 -20 -5 3 -7 15 -4 26 4 14 0 20 -11 20 -9 0 -16 -4 -16 -10 0
-5 6 -10 13 -10 9 0 9 -2 0 -8 -9 -6 -6 -11 8 -20 18 -12 21 -11 26 7 3 11 11
22 19 25 12 5 12 2 3 -15 -6 -11 -8 -23 -5 -27 3 -3 6 1 6 8 0 9 7 7 22 -6 19
-16 20 -16 9 -1 -22 28 -6 30 25 4 l28 -25 -42 4 c-24 2 -41 0 -38 -5 6 -10
-66 2 -106 18 -39 15 -35 4 5 -13 l32 -15 -31 6 c-22 3 -31 1 -31 -9 0 -10 24
-12 116 -10 64 2 120 7 125 12 4 4 -10 25 -33 45 -23 21 -41 42 -41 48 0 6 10
1 23 -11 13 -12 27 -19 32 -15 4 5 5 3 2 -3 -4 -6 4 -21 17 -33 l23 -22 7 23
c9 36 7 238 -3 238 -5 0 -8 -10 -8 -22z"/>
<path d="M1252 2655 c0 -60 3 -120 6 -133 7 -22 8 -22 46 17 22 22 43 38 48
35 4 -3 8 0 8 6 0 7 -6 10 -14 7 -8 -3 -17 -1 -20 6 -3 9 -5 8 -5 -1 -1 -8 -6
-10 -13 -5 -7 4 -17 8 -23 8 -5 0 -11 27 -12 60 -1 33 -6 71 -12 85 -7 19 -10
-1 -9 -85z m58 -87 c0 -6 -3 -8 -7 -5 -3 4 -12 -1 -19 -11 -12 -16 -13 -15
-11 5 0 12 5 19 9 17 4 -3 8 0 8 6 0 6 5 8 10 5 6 -3 10 -11 10 -17z"/>
<path d="M3767 2754 c-9 -9 4 -237 14 -250 5 -6 3 -16 -4 -24 -10 -10 -9 -11
2 -5 8 4 75 7 150 6 93 -1 131 2 120 9 -9 5 -29 10 -45 10 -161 2 -174 3 -163
16 6 8 15 11 20 8 5 -3 9 5 9 18 0 19 2 20 11 8 8 -12 9 -9 4 10 -6 23 -5 24
8 7 14 -17 15 -16 20 2 3 11 18 28 35 38 21 13 26 21 18 29 -6 6 -18 8 -25 6
-8 -3 -11 0 -7 7 4 6 1 11 -6 11 -9 0 -9 3 2 10 12 8 11 9 -7 7 -11 -2 -29 -9
-39 -17 -10 -8 -15 -10 -11 -3 4 6 2 15 -4 19 -7 4 -9 3 -5 -4 3 -6 -1 -18
-10 -26 -9 -9 -11 -16 -4 -16 6 0 9 -4 6 -9 -4 -5 5 -4 19 2 14 7 25 21 26 32
0 18 1 18 9 -2 6 -14 18 -23 32 -24 23 -1 23 -1 -1 -8 -13 -3 -28 -15 -32 -26
-7 -19 -8 -19 -8 3 -1 13 -7 22 -17 22 -10 0 -13 -6 -10 -18 7 -19 -1 -31 -51
-76 l-32 -29 3 29 c1 16 -2 37 -7 48 -7 14 -6 17 5 14 7 -3 12 -17 11 -32 -2
-23 0 -26 12 -16 8 7 12 17 8 24 -3 6 -3 8 2 4 10 -9 35 10 35 26 0 6 -6 3
-14 -6 -12 -16 -14 -16 -35 -1 -18 12 -22 22 -18 47 5 34 -15 131 -26 120z
m20 -96 c-3 -8 -6 -5 -6 6 -1 11 2 17 5 13 3 -3 4 -12 1 -19z"/>
<path d="M1066 2667 c3 -10 9 -15 12 -12 3 3 0 11 -7 18 -10 9 -11 8 -5 -6z"/>
<path d="M1368 2662 c4 -11 1 -13 -8 -7 -8 5 -11 3 -8 -6 8 -24 36 -22 41 3
l4 23 2 -22 c1 -23 25 -31 36 -13 3 6 -1 10 -10 10 -9 0 -13 5 -10 10 4 6 12
7 18 4 7 -4 8 -3 4 1 -4 5 -23 10 -41 10 -27 2 -33 -1 -28 -13z"/>
<path d="M3568 2615 c2 -14 11 -25 18 -25 19 0 18 15 -2 34 -21 21 -22 20 -16
-9z"/>
<path d="M1355 2620 c3 -5 -1 -11 -7 -13 -8 -3 -6 -6 5 -6 9 -1 17 -8 17 -17
0 -8 5 -12 10 -9 17 11 11 42 -10 48 -11 3 -18 1 -15 -3z"/>
<path d="M1423 2623 c-13 -2 -23 -10 -23 -18 0 -7 -3 -21 -7 -30 -5 -15 -3
-16 14 -7 11 6 24 8 28 4 5 -4 5 -1 1 5 -4 7 -2 22 4 33 6 11 9 19 8 19 -2 -1
-13 -4 -25 -6z"/>
<path d="M3816 2598 c3 -5 10 -6 15 -3 13 9 11 12 -6 12 -8 0 -12 -4 -9 -9z"/>
<path d="M1354 2546 c5 -15 4 -17 -7 -8 -11 9 -20 5 -40 -16 -15 -16 -24 -31
-20 -35 3 -4 58 -7 122 -6 69 1 106 4 91 8 l-25 8 25 4 c14 3 -23 4 -83 3 -91
-1 -105 1 -95 13 8 10 13 11 18 3 5 -7 11 -6 20 5 11 13 11 18 0 28 -10 10
-12 8 -6 -7z"/>
<path d="M1420 2543 c0 -6 8 -17 18 -24 16 -13 16 -13 2 6 -8 11 -16 22 -17
24 -2 2 -3 0 -3 -6z"/>
<path d="M1235 2479 c-4 -6 -5 -12 -2 -15 2 -3 7 2 10 11 7 17 1 20 -8 4z"/>
<path d="M969 2458 c-9 -6 -2 -7 21 -3 24 4 31 3 21 -3 -11 -8 -8 -10 10 -10
54 1 153 -6 141 -9 -6 -3 -9 -10 -5 -16 4 -6 0 -8 -9 -4 -21 8 -30 -3 -17 -20
9 -10 8 -13 -2 -13 -12 0 -12 -2 -1 -9 8 -4 23 -7 35 -6 12 1 29 3 37 4 13 1
13 2 0 11 -13 8 -12 10 4 10 17 0 18 -5 12 -50 -4 -28 -9 -58 -12 -68 -5 -15
-4 -15 6 -2 9 12 10 6 6 -26 -5 -36 -3 -42 15 -47 15 -4 23 0 26 14 3 10 8 17
12 15 4 -3 6 28 6 67 0 65 2 72 20 72 11 0 19 -6 18 -12 -2 -7 2 -13 7 -13 6
0 10 6 10 13 0 8 4 7 10 -3 5 -8 10 -10 10 -5 0 11 -89 103 -91 95 -1 -3 -5
-59 -9 -125 l-6 -120 -2 100 c-1 55 -5 110 -8 123 l-7 23 -28 -27 c-16 -15
-26 -31 -23 -36 6 -10 -10 -11 -20 -1 -3 4 8 22 26 40 17 18 30 34 27 37 -10
9 -228 13 -240 4z m351 -83 c0 -10 -40 9 -44 21 -4 11 0 11 19 -2 14 -9 25
-18 25 -19z"/>
<path d="M3889 2463 c-114 -5 -115 -6 -122 -158 -4 -89 -3 -115 5 -101 6 11
13 52 15 90 2 39 4 76 5 82 1 7 8 11 17 9 9 -1 15 -8 13 -15 -1 -6 2 -9 8 -5
10 6 15 -13 12 -47 -1 -10 3 -18 9 -18 21 0 -2 74 -34 109 l-32 35 38 -32 c21
-18 43 -32 50 -32 8 0 6 4 -3 10 -13 9 -13 11 0 19 9 7 17 6 21 -1 7 -11 23 8
24 27 0 6 9 9 21 7 11 -1 45 4 75 12 l54 15 -45 -2 c-25 0 -84 -3 -131 -4z
m17 -36 c4 -3 -2 -6 -12 -5 -11 0 -26 -2 -35 -6 -10 -4 -16 -2 -16 7 0 14 50
17 63 4z"/>
<path d="M3804 2366 c-3 -8 -4 -23 -2 -33 3 -11 6 -6 9 15 6 34 2 42 -7 18z"/>
<path d="M1357 2333 c-16 -16 -5 -33 21 -33 l27 1 -25 13 -25 14 30 5 c27 4
28 4 4 6 -14 0 -29 -2 -32 -6z"/>
<path d="M3871 2323 c-1 -24 22 -32 35 -11 5 7 2 9 -9 5 -10 -4 -17 0 -20 11
-3 12 -5 11 -6 -5z"/>
<path d="M1320 2320 c13 -8 13 -10 -1 -15 -8 -3 -16 -15 -16 -28 -2 -17 0 -19
7 -7 8 13 10 12 10 -2 0 -10 5 -18 10 -18 6 0 10 -8 11 -17 0 -13 3 -10 10 7
5 14 17 31 26 38 15 11 15 12 -5 12 -16 0 -22 -6 -23 -22 -1 -21 -2 -21 -6 -3
-3 11 -10 23 -17 27 -8 6 -7 8 2 8 6 0 12 7 12 15 0 8 -8 15 -17 15 -15 0 -16
-2 -3 -10z"/>
<path d="M3820 2296 c0 -8 6 -19 14 -23 8 -5 19 -19 25 -33 7 -18 10 -20 10
-7 1 9 5 17 10 17 6 0 9 9 8 20 -2 27 -15 25 -20 -2 -4 -23 -4 -23 -6 1 -1 16
-5 21 -17 17 -8 -3 -12 -2 -9 3 3 5 1 12 -5 16 -5 3 -10 -1 -10 -9z"/>
<path d="M3790 2295 c0 -5 5 -17 10 -25 5 -8 10 -10 10 -5 0 6 -5 17 -10 25
-5 8 -10 11 -10 5z"/>
<path d="M3906 2285 c-9 -26 -7 -32 5 -12 6 10 9 21 6 23 -2 3 -7 -2 -11 -11z"/>
<path d="M3821 2214 c0 -11 3 -14 6 -6 3 7 2 16 -1 19 -3 4 -6 -2 -5 -13z"/>
<path d="M3876 2215 c-3 -8 -1 -15 4 -15 6 0 10 7 10 15 0 8 -2 15 -4 15 -2 0
-6 -7 -10 -15z"/>
<path d="M1542 1850 c0 -14 2 -19 5 -12 2 6 2 18 0 25 -3 6 -5 1 -5 -13z"/>
<path d="M3633 1714 c-16 -25 -16 -27 1 -36 9 -5 22 -22 27 -36 12 -31 12 -37
2 -38 -5 0 -23 -4 -42 -8 -22 -5 -36 -4 -40 3 -4 6 -7 -5 -8 -24 -1 -19 5 -39
13 -46 8 -6 11 -16 7 -22 -3 -6 -1 -7 6 -3 6 4 8 12 5 18 -4 7 8 8 37 4 29 -4
37 -3 24 3 -15 6 -4 9 41 12 44 3 60 1 57 -8 -3 -7 3 -10 17 -6 12 3 28 -1 38
-10 16 -15 17 -13 17 26 0 25 -6 48 -15 55 -13 12 -12 13 5 7 14 -4 17 -3 9 5
-12 12 -47 3 -38 -11 3 -5 -2 -6 -10 -3 -13 5 -12 9 7 26 l22 19 -22 -13 c-19
-11 -25 -9 -48 16 -14 15 -22 32 -19 38 5 7 1 9 -9 5 -21 -8 -21 -3 -2 17 14
13 13 15 -4 13 -11 0 -17 -6 -15 -12 3 -5 -3 0 -12 13 -21 28 -30 28 -51 -4z
m75 -66 c28 -37 53 -61 76 -69 21 -7 32 -17 29 -25 -4 -10 -11 -10 -37 3 -29
13 -41 13 -109 0 -43 -7 -80 -10 -83 -6 -7 12 11 19 65 26 76 9 79 14 37 68
-20 26 -36 55 -36 63 0 19 4 15 58 -60z"/>
<path d="M1318 1712 c-14 -2 -32 -10 -38 -18 -7 -8 -21 -14 -32 -14 -22 0 -78
-30 -78 -41 0 -4 -10 -6 -23 -5 -21 3 -23 -1 -23 -33 0 -33 3 -36 28 -36 15
-1 28 2 28 6 0 4 8 9 19 12 15 3 18 0 14 -17 -3 -15 -2 -17 5 -8 7 10 11 6 15
-15 3 -15 13 -37 22 -48 15 -19 16 -19 4 5 l-12 25 22 -19 c23 -21 76 -32 65
-14 -4 6 3 5 16 -2 15 -8 20 -8 16 -1 -4 6 -3 11 2 11 21 0 49 65 44 103 -2
20 -8 37 -12 37 -5 0 -14 16 -21 34 -7 19 -16 33 -20 30 -4 -2 -9 -1 -11 3 -1
5 -15 7 -30 5z m54 -77 c25 -64 16 -103 -28 -121 -42 -17 -73 -1 -99 54 -20
42 -25 45 -66 28 -11 -5 -18 -1 -22 13 -3 13 -1 18 7 15 7 -3 48 11 92 30 43
18 83 33 88 32 5 -1 17 -24 28 -51z m-227 -25 c3 -5 1 -10 -4 -10 -6 0 -11 5
-11 10 0 6 2 10 4 10 3 0 8 -4 11 -10z m10 -30 c3 -6 -1 -7 -9 -4 -18 7 -21
14 -7 14 6 0 13 -4 16 -10z"/>
<path d="M1283 1641 l-42 -16 19 -43 c21 -47 38 -57 75 -48 32 8 40 42 20 89
-17 42 -15 41 -72 18z m67 -55 c0 -6 -5 -4 -11 4 -9 12 -10 11 -6 -7 6 -29
-16 -36 -37 -12 -22 26 -20 38 7 48 22 9 47 -9 47 -33z"/>
<path d="M1225 1695 c-25 -12 -26 -14 -5 -9 14 4 29 10 35 15 12 12 5 11 -30
-6z"/>
<path d="M3743 1695 c-3 -9 -3 -18 -1 -21 3 -3 8 4 11 16 6 23 -1 27 -10 5z"/>
<path d="M1390 1685 c0 -5 5 -17 10 -25 5 -8 10 -10 10 -5 0 6 -5 17 -10 25
-5 8 -10 11 -10 5z"/>
<path d="M1609 1678 c7 -9 9 -23 5 -30 -6 -10 -4 -11 7 0 11 10 10 15 -6 30
-17 15 -18 15 -6 0z"/>
<path d="M3617 1657 c-3 -7 3 -13 14 -13 13 0 15 3 7 13 -6 7 -12 13 -13 13
-2 0 -5 -6 -8 -13z"/>
<path d="M3565 1630 c-3 -5 -1 -10 4 -10 6 0 11 5 11 10 0 6 -2 10 -4 10 -3 0
-8 -4 -11 -10z"/>
<path d="M3593 1625 c0 -7 6 -11 14 -8 7 3 13 6 13 8 0 2 -6 5 -13 8 -8 3 -14
-1 -14 -8z"/>
<path d="M3546 1547 c3 -10 9 -15 12 -12 3 3 0 11 -7 18 -10 9 -11 8 -5 -6z"/>
<path d="M1406 1533 c-6 -14 -5 -15 5 -6 7 7 10 15 7 18 -3 3 -9 -2 -12 -12z"/>
<path d="M1707 1504 c4 -11 3 -15 -5 -10 -6 3 -13 2 -16 -3 -4 -5 2 -8 11 -7
20 3 28 21 14 31 -7 4 -8 0 -4 -11z"/>
<path d="M3561 1506 c-9 -11 -8 -15 5 -20 9 -4 19 -4 22 -1 3 3 0 5 -7 5 -8 0
-11 7 -7 15 7 19 2 19 -13 1z"/>
<path d="M1415 1499 c-4 -6 -5 -12 -2 -15 2 -3 7 2 10 11 7 17 1 20 -8 4z"/>
<path d="M3790 1496 c0 -2 7 -6 15 -10 8 -3 15 -1 15 4 0 6 -7 10 -15 10 -8 0
-15 -2 -15 -4z"/>
<path d="M3520 1465 c-14 -8 -20 -14 -14 -15 5 0 19 7 30 15 24 18 16 19 -16
0z"/>
<path d="M3450 1455 c-11 -13 -10 -14 4 -9 9 3 16 10 16 15 0 13 -6 11 -20 -6z"/>
<path d="M3585 1441 c-3 -6 -23 -11 -43 -11 -26 0 -44 -8 -65 -27 -23 -23 -27
-24 -21 -8 4 11 4 17 0 14 -4 -4 -8 -16 -11 -27 -2 -11 -8 -30 -14 -41 -14
-25 -14 -43 1 -78 6 -15 12 -37 12 -47 1 -14 9 -20 28 -20 15 -1 33 -8 40 -15
11 -11 10 -12 -7 -3 -15 7 -25 6 -40 -4 -10 -8 -14 -14 -8 -14 7 0 15 5 18 10
4 6 12 7 18 3 18 -12 68 -12 61 -1 -4 6 2 8 14 4 11 -4 23 -2 27 5 6 8 10 7
16 -2 7 -12 9 -12 9 0 0 8 13 27 29 42 35 33 50 91 30 116 -8 9 -13 18 -11 20
1 1 2 9 2 16 0 8 -3 7 -10 -3 -5 -8 -12 -11 -16 -7 -4 3 -2 12 4 20 8 10 7 13
-7 13 -11 0 -17 -6 -14 -12 3 -8 -2 -11 -16 -7 -12 3 -18 10 -14 17 4 8 2 8
-5 1 -6 -6 -13 -22 -14 -35 -2 -14 -7 -29 -13 -33 -6 -5 -3 -7 7 -4 9 3 23 -2
32 -12 19 -20 21 -35 4 -25 -7 4 -8 3 -4 -4 9 -16 -39 -45 -62 -38 -11 4 -24
16 -31 29 -9 18 -10 18 -6 2 5 -15 3 -17 -5 -9 -9 9 -9 17 0 34 10 18 9 24 -1
32 -10 7 -8 8 9 5 20 -5 21 -3 10 11 -11 13 -11 15 5 9 12 -4 17 -1 18 11 0
10 3 12 6 5 10 -25 20 -12 17 20 -3 23 -1 28 6 17 8 -13 10 -13 10 2 0 9 6 18
13 21 6 2 9 7 6 11 -4 4 -10 3 -14 -3z m-35 -42 c0 -5 -6 -9 -14 -9 -27 0 -66
-51 -66 -87 0 -96 136 -115 168 -23 10 27 8 31 -19 47 -29 18 -34 25 -23 36 8
8 74 -42 74 -55 0 -22 -35 -81 -56 -95 -29 -18 -83 -19 -115 -2 -13 7 -31 12
-39 11 -11 -2 -11 0 -3 5 8 6 9 14 3 23 -15 23 -12 79 6 109 26 45 84 72 84
40z"/>
<path d="M3470 1429 c0 -5 5 -7 10 -4 6 3 10 8 10 11 0 2 -4 4 -10 4 -5 0 -10
-5 -10 -11z"/>
<path d="M1424 1402 c-31 -26 -39 -59 -20 -87 11 -17 13 -25 5 -25 -8 0 -5 -7
5 -19 15 -17 15 -19 1 -25 -9 -3 -13 -2 -10 4 10 17 -6 34 -17 19 -6 -10 -7
-7 -3 9 4 13 2 22 -4 22 -6 0 -11 5 -11 11 0 8 6 7 17 -2 15 -13 15 -12 2 9
-8 12 -16 17 -17 12 -3 -8 -8 -8 -17 0 -9 8 -17 7 -27 -3 -7 -7 -20 -12 -28
-10 -10 3 -11 1 -4 -4 20 -16 23 -42 7 -59 -16 -16 -16 -16 5 -10 18 6 22 3
22 -12 0 -13 12 -25 38 -35 20 -9 29 -16 20 -16 -35 -2 -24 -16 12 -16 21 0
37 2 35 5 -2 3 10 12 27 19 21 10 28 19 25 32 -3 11 0 22 5 26 6 3 9 2 6 -3
-3 -5 -2 -18 3 -29 6 -13 6 -6 2 20 -3 22 -6 50 -7 62 -1 14 -5 18 -12 12 -7
-5 -11 -3 -11 6 0 30 27 24 35 -8 6 -22 15 -32 29 -33 25 -1 64 26 46 33 -7 3
-13 11 -13 19 0 9 5 12 12 8 7 -4 8 -3 4 5 -4 6 -12 9 -17 6 -5 -4 -9 0 -9 7
0 8 -7 23 -16 34 -8 10 -12 12 -8 4 4 -8 -3 -5 -15 8 -26 26 -68 28 -97 4z
m75 -12 c36 -19 75 -100 48 -100 -8 0 -17 13 -20 30 -4 16 -18 37 -32 46 -24
16 -27 16 -42 1 -15 -15 -15 -21 2 -72 15 -42 17 -60 9 -73 -13 -20 -56 -27
-82 -13 -21 11 -52 68 -52 95 0 27 18 18 25 -13 13 -61 92 -97 88 -41 -1 14
-7 45 -15 69 -12 41 -12 44 11 62 26 22 35 23 60 9z m-14 -40 c-3 -5 -12 -10
-18 -10 -7 0 -6 4 3 10 19 12 23 12 15 0z"/>
<path d="M1586 1367 c3 -10 9 -15 12 -12 3 3 0 11 -7 18 -10 9 -11 8 -5 -6z"/>
<path d="M1880 1339 c0 -5 5 -7 10 -4 6 3 10 8 10 11 0 2 -4 4 -10 4 -5 0 -10
-5 -10 -11z"/>
<path d="M1284 1280 c0 -13 4 -16 10 -10 7 7 7 13 0 20 -6 6 -10 3 -10 -10z"/>
<path d="M1540 1249 c0 -5 5 -7 10 -4 6 3 10 8 10 11 0 2 -4 4 -10 4 -5 0 -10
-5 -10 -11z"/>
<path d="M1644 1222 c-11 -7 -23 -53 -27 -102 -1 -14 -6 -31 -11 -38 -4 -7 -5
-16 -2 -19 4 -4 -5 -18 -19 -33 l-25 -26 20 -22 c13 -13 18 -27 13 -35 -4 -6
7 -1 24 13 17 14 33 33 36 44 4 11 10 15 18 10 8 -4 10 -3 5 4 -5 8 4 12 29
12 25 0 34 4 29 12 -5 7 -2 9 7 6 9 -3 31 2 51 11 30 13 35 20 27 34 -7 12 -6
17 2 17 14 0 -21 29 -35 30 -6 0 -2 -6 8 -13 15 -11 11 -13 -30 -15 -26 -1
-52 -6 -58 -12 -14 -14 -29 -13 -20 1 14 24 12 94 -4 112 -17 19 -22 20 -38 9z
m26 -44 c-1 -18 -5 -52 -9 -75 -5 -24 -6 -43 -2 -43 3 0 30 9 59 20 55 21 82
25 82 13 0 -5 -34 -19 -76 -33 -55 -18 -83 -33 -100 -54 -30 -40 -44 -25 -14
16 16 21 26 55 33 109 11 79 27 108 27 47z"/>
<path d="M1611 1184 c0 -11 3 -14 6 -6 3 7 2 16 -1 19 -3 4 -6 -2 -5 -13z"/>
<path d="M3640 1190 c0 -5 5 -10 10 -10 6 0 10 5 10 10 0 6 -4 10 -10 10 -5 0
-10 -4 -10 -10z"/>
<path d="M1480 1179 c0 -5 5 -7 10 -4 6 3 10 8 10 11 0 2 -4 4 -10 4 -5 0 -10
-5 -10 -11z"/>
<path d="M3255 1163 c-11 -3 -28 -12 -37 -21 -10 -8 -18 -11 -18 -6 0 5 -7 -4
-16 -21 -19 -37 -35 -115 -23 -115 5 0 9 -6 9 -14 0 -19 45 -65 77 -77 32 -12
93 -3 93 13 0 6 3 8 7 5 3 -4 13 -1 21 6 13 10 14 9 7 -2 -6 -10 -4 -12 4 -7
7 5 10 14 7 22 -3 8 0 13 6 11 12 -2 21 25 32 93 4 31 3 40 -4 30 -8 -13 -10
-12 -10 3 0 27 -37 76 -58 76 -9 0 -30 2 -47 5 -16 2 -39 2 -50 -1z m91 -34
c25 -13 54 -60 54 -89 0 -57 -55 -110 -116 -110 -50 0 -104 53 -104 103 0 41
31 84 74 103 31 13 53 11 92 -7z"/>
<path d="M3225 1088 c-32 -38 -29 -81 11 -115 53 -48 138 -10 138 60 0 84 -95
119 -149 55z m88 0 c31 -18 37 -29 35 -64 -1 -20 -6 -30 -14 -27 -7 2 -15 -1
-20 -8 -4 -8 -3 -10 4 -5 7 4 12 5 12 2 0 -17 -38 -23 -60 -9 -14 8 -17 12 -8
9 12 -3 15 -1 11 9 -3 8 -9 13 -13 10 -10 -6 -40 22 -40 36 0 5 5 9 10 9 6 0
10 10 10 21 0 19 2 20 17 8 15 -12 16 -12 10 4 -8 21 13 23 46 5z"/>
<path d="M3137 1141 c-4 -17 -3 -21 5 -13 5 5 8 16 6 23 -3 8 -7 3 -11 -10z"/>
<path d="M3171 1149 c0 -9 -8 -30 -16 -45 -8 -16 -14 -40 -14 -54 1 -18 4 -14
10 14 5 22 14 45 20 52 6 7 9 21 6 31 -4 15 -5 15 -6 2z"/>
<path d="M3406 1152 c-3 -5 1 -9 9 -9 8 0 12 4 9 9 -3 4 -7 8 -9 8 -2 0 -6 -4
-9 -8z"/>
<path d="M1810 1146 c0 -2 7 -7 16 -10 8 -3 12 -2 9 4 -6 10 -25 14 -25 6z"/>
<path d="M1733 1123 c9 -2 23 -2 30 0 6 3 -1 5 -18 5 -16 0 -22 -2 -12 -5z"/>
<path d="M1530 1000 c-6 -11 -8 -20 -6 -20 3 0 10 9 16 20 6 11 8 20 6 20 -3
0 -10 -9 -16 -20z"/>
<path d="M1908 1006 c-15 -8 -29 -12 -31 -9 -3 2 -8 -5 -12 -16 -3 -12 -11
-19 -16 -15 -5 3 -9 2 -8 -3 1 -4 -3 -21 -9 -36 -16 -39 -15 -57 7 -99 13 -26
15 -40 8 -47 -12 -12 -13 -12 25 -15 17 -2 25 1 21 8 -4 6 2 4 13 -4 27 -22
65 -23 93 -2 20 16 22 21 10 39 -7 12 -19 19 -27 15 -10 -3 -13 -1 -8 6 4 7 2
12 -3 12 -6 0 -11 -6 -11 -12 0 -9 -4 -8 -10 2 -5 8 -10 11 -10 6 0 -5 -6 -3
-13 3 -8 6 -17 8 -21 4 -4 -4 -4 1 0 11 5 12 4 17 -3 13 -5 -3 -9 3 -7 16 1
12 3 27 3 32 2 18 97 12 118 -7 11 -10 25 -18 31 -18 7 0 12 -6 12 -14 0 -8 3
-17 8 -19 4 -3 7 21 8 53 0 35 -4 58 -10 57 -5 -1 -10 4 -11 12 0 8 -7 16 -15
18 -13 4 -13 3 0 -6 8 -6 11 -11 6 -11 -5 0 -17 6 -25 14 -25 22 -82 29 -113
12z m102 -31 c36 -19 52 -46 39 -66 -6 -10 -9 -11 -9 -1 0 26 -48 62 -81 62
-43 0 -89 -43 -89 -83 0 -40 48 -87 89 -87 17 0 31 -4 31 -10 0 -16 -63 -12
-87 5 -12 9 -27 14 -34 13 -17 -4 -23 88 -8 124 23 56 87 75 149 43z m-38 -38
c-14 -6 -26 -7 -32 -1 -5 5 4 9 23 10 30 1 30 1 9 -9z m-92 -155 c0 -5 -7 -9
-15 -9 -8 0 -12 4 -9 9 3 4 9 8 15 8 5 0 9 -4 9 -8z"/>
<path d="M3425 999 c-4 -6 -5 -12 -2 -15 2 -3 7 2 10 11 7 17 1 20 -8 4z"/>
<path d="M1550 981 c0 -6 4 -13 10 -16 6 -3 7 1 4 9 -7 18 -14 21 -14 7z"/>
<path d="M2904 974 c4 -11 2 -15 -7 -11 -9 3 -13 -8 -13 -44 0 -27 3 -44 7
-38 10 17 27 -19 22 -45 -4 -18 -3 -19 7 -6 9 12 11 8 7 -20 -3 -19 -3 -29 0
-22 7 17 23 5 23 -19 0 -10 4 -19 9 -19 5 0 13 -10 16 -21 5 -16 9 -18 15 -9
9 15 30 5 30 -16 0 -8 4 -14 8 -14 4 0 8 9 8 19 0 11 -4 17 -8 15 -4 -3 -8 3
-8 12 0 10 3 15 6 11 6 -6 47 10 82 33 22 15 30 40 12 40 -5 0 -10 -4 -10 -9
0 -7 -24 -19 -116 -57 -10 -4 -36 50 -91 184 -3 6 1 12 9 12 8 0 28 -36 47
-85 19 -47 38 -85 42 -85 11 0 119 49 119 55 0 9 -71 2 -77 -8 -4 -6 -1 -7 7
-2 8 5 11 4 7 -3 -15 -22 -77 14 -77 46 0 22 -51 110 -67 117 -11 4 -13 1 -9
-11z"/>
<path d="M2940 970 c0 -5 5 -10 11 -10 5 0 7 5 4 10 -3 6 -8 10 -11 10 -2 0
-4 -4 -4 -10z"/>
<path d="M1639 953 c-13 -16 -12 -17 4 -4 16 13 21 21 13 21 -2 0 -10 -8 -17
-17z"/>
<path d="M3406 933 c-6 -14 -5 -15 5 -6 7 7 10 15 7 18 -3 3 -9 -2 -12 -12z"/>
<path d="M2210 919 c0 -5 -4 -8 -8 -5 -4 2 -9 -5 -9 -17 -1 -12 -10 -27 -19
-34 -11 -8 -13 -13 -5 -13 7 0 9 -5 6 -10 -3 -6 -8 -43 -11 -84 -4 -67 -2 -74
16 -79 11 -3 23 -1 26 4 3 5 10 7 15 4 5 -4 9 4 9 17 0 14 6 33 14 43 12 16
17 17 43 6 24 -10 29 -17 25 -36 -2 -14 -1 -33 4 -42 4 -10 8 -22 8 -28 1 -5
10 -11 21 -12 19 -3 19 -3 1 5 -19 8 -19 9 1 14 11 3 29 1 39 -4 17 -8 17 -8
3 4 -13 10 -14 19 -6 38 5 14 11 45 13 70 2 25 6 62 9 82 3 20 1 39 -5 43 -6
4 -8 10 -5 15 3 4 -4 6 -15 3 -20 -5 -57 -59 -52 -76 1 -5 -15 -7 -35 -5 -37
3 -38 4 -35 41 2 26 -2 39 -12 43 -9 3 -13 10 -10 15 3 5 -2 9 -10 9 -9 0 -16
-5 -16 -11z m27 -36 c-22 -79 -23 -76 64 -88 43 -6 47 -5 52 17 4 12 7 33 7
46 0 13 6 22 16 22 9 0 14 -6 11 -13 -3 -7 -11 -54 -18 -105 -9 -66 -17 -92
-27 -92 -13 0 -12 24 4 82 4 13 -7 18 -58 25 -70 10 -78 5 -78 -44 0 -28 -15
-52 -25 -41 -2 2 3 49 12 106 12 74 20 102 30 102 9 0 13 -7 10 -17z"/>
<path d="M2585 899 c2 -10 -1 -22 -7 -25 -7 -5 -8 -2 -3 7 4 8 -4 1 -19 -16
-23 -27 -33 -65 -27 -105 1 -8 2 -28 2 -45 0 -26 1 -27 9 -10 6 14 9 16 10 5
2 -8 2 -19 1 -23 -1 -5 3 -6 9 -2 5 3 10 3 10 -2 0 -13 51 -33 84 -33 17 0 46
8 65 18 37 18 76 76 65 94 -4 6 -3 8 3 5 7 -4 10 14 9 52 -1 36 -4 54 -9 45
-4 -8 -5 -20 -1 -27 5 -7 1 -7 -10 2 -9 8 -15 20 -12 27 3 8 0 11 -10 7 -7 -3
-14 0 -14 6 0 6 -8 11 -17 11 -15 0 -14 2 3 15 18 14 17 14 -10 5 -16 -6 -37
-8 -47 -5 -10 3 -33 7 -52 9 -30 3 -35 1 -32 -15z m120 -23 c36 -15 65 -59 65
-98 0 -69 -85 -125 -150 -98 -43 18 -70 56 -70 99 0 45 22 79 64 97 40 17 49
17 91 0z"/>
<path d="M2630 856 c-66 -21 -77 -105 -20 -146 33 -24 51 -25 89 -5 39 20 55
66 37 110 -18 41 -58 57 -106 41z m88 -85 c-2 -17 -10 -27 -23 -29 -11 -2 -24
-8 -29 -12 -5 -5 2 -7 15 -4 l24 5 -23 -10 c-25 -12 -72 1 -72 19 0 6 -5 8
-12 4 -7 -4 -8 -3 -4 5 4 6 13 8 19 5 7 -4 9 -3 4 1 -4 5 1 18 10 29 18 21 18
21 -3 4 -23 -20 -45 -25 -26 -6 7 7 12 21 12 33 0 16 2 17 10 5 8 -13 10 -13
10 2 0 9 10 18 23 20 31 5 69 -36 65 -71z"/>
<path d="M2627 756 c-4 -11 -6 -21 -4 -23 7 -6 37 9 37 19 0 5 -4 7 -9 4 -5
-4 -11 -1 -13 6 -3 7 -7 5 -11 -6z"/>
<path d="M2756 904 c-5 -14 -4 -15 9 -4 17 14 19 20 6 20 -5 0 -12 -7 -15 -16z"/>
<path d="M3006 910 c7 -8 14 -24 17 -35 4 -19 5 -19 6 1 0 12 -7 28 -16 35
-16 12 -17 12 -7 -1z"/>
<path d="M2330 899 c0 -5 5 -7 10 -4 6 3 10 8 10 11 0 2 -4 4 -10 4 -5 0 -10
-5 -10 -11z"/>
<path d="M2990 885 c0 -5 5 -17 10 -25 5 -8 10 -10 10 -5 0 6 -5 17 -10 25 -5
8 -10 11 -10 5z"/>
<path d="M2890 849 c0 -5 5 -7 10 -4 6 3 10 8 10 11 0 2 -4 4 -10 4 -5 0 -10
-5 -10 -11z"/>
<path d="M2268 833 c7 -3 16 -2 19 1 4 3 -2 6 -13 5 -11 0 -14 -3 -6 -6z"/>
<path d="M2491 804 c0 -11 3 -14 6 -6 3 7 2 16 -1 19 -3 4 -6 -2 -5 -13z"/>
<path d="M2511 804 c0 -11 3 -14 6 -6 3 7 2 16 -1 19 -3 4 -6 -2 -5 -13z"/>
<path d="M2501 775 c1 -19 18 -51 18 -35 0 8 -4 22 -9 30 -5 8 -9 11 -9 5z"/>
<path d="M2491 694 c0 -11 3 -14 6 -6 3 7 2 16 -1 19 -3 4 -6 -2 -5 -13z"/>
<path d="M2560 656 c0 -2 9 -6 20 -9 11 -3 18 -1 14 4 -5 9 -34 13 -34 5z"/>
<path d="M2380 610 c-9 -6 -10 -10 -3 -10 6 0 15 5 18 10 8 12 4 12 -15 0z"/>
<path d="M2598 613 c7 -3 16 -2 19 1 4 3 -2 6 -13 5 -11 0 -14 -3 -6 -6z"/>
</g>
</svg>
